<svg xmlns="http://www.w3.org/2000/svg" viewBox="0 0 919.6 193.5"><defs><style>.cls-1,.cls-2{fill:none;}.cls-1,.cls-2,.cls-3,.cls-4,.cls-5,.cls-6,.cls-7,.cls-8{stroke:#030402;stroke-linecap:round;stroke-linejoin:round;}.cls-1,.cls-3,.cls-4,.cls-5,.cls-6,.cls-7,.cls-8{stroke-width:2.5px;}.cls-2{stroke-width:3px;}.cls-3{fill:#f4ea5a;}.cls-4{fill:#fff;}.cls-5{fill:#e8b242;}.cls-6{fill:#93ba53;}.cls-7{fill:#65a9e0;}.cls-8{fill:#d47aa7;}</style></defs><g id="Capa_2" data-name="Capa 2"><g id="Capa_2-2" data-name="Capa 2"><line class="cls-1" x1="35.4" y1="96.7" x2="882.2" y2="96.7"/></g><g id="Capa_3" data-name="Capa 3"><rect class="cls-2" x="1.5" y="1.5" width="916.6" height="190.47" rx="87.6"/></g><g id="Capa_1-2" data-name="Capa 1"><circle class="cls-3" cx="103.9" cy="96" r="68.4"/><path class="cls-4" d="M75.2,90s-7.7-49.4,38.2-47.6c15,.6,42,10.8,35.6,48.8-3.7,22.1-22.9,22.9-24.7,34-4.4,27.3-40.7,27.5-46.5,7.3,0,0-19.9-1.8-19.9-21.3S75.2,90,75.2,90Z"/><path class="cls-1" d="M103.1,108s-1.4-10.1-14.6-10.4c-21.4-.5-24,25.2-1.5,25.2,20.4,0,16.4-17,14.5-23.3C97.8,87.3,82.1,56,111.1,56.1S136,83.7,136,83.7l-17,8.6S131.2,60.4,95.9,65"/><path class="cls-1" d="M95.3,130.2s14.3-1,15-13.2"/><circle class="cls-5" cx="637.3" cy="97.5" r="68.4"/><path class="cls-4" d="M610,98.3s-9.3,51.4,27,51.4,27.4-51.4,27.4-51.4"/><line class="cls-1" x1="637.3" y1="98.3" x2="637.3" y2="134"/><path class="cls-4" d="M636.8,82.3c-3.4-41.5,25-37.7,25-37.7s-11.5,20.2-24,18.8"/><path class="cls-4" d="M636.8,82.3s.1-14.9-22.7-14.9-22.7,30.4-22.7,30.4h91.1s0-30.6-22.8-30.1S636.8,82.3,636.8,82.3Z"/><circle class="cls-6" cx="813.7" cy="96.7" r="68.4"/><path class="cls-4" d="M814.1,43.2s-30.5,15.4-23,60.9c0,0-22.9-3.8-22.8,22.6.1,23,25.8,15.4,25.8,7.8,0,0,8.7,14.1,19.6,14.2s19.8-14.1,19.8-14.1c0,7.6,26,15.1,25.9-7.6-.1-26.9-22.8-22.9-22.8-22.9C844.3,58.5,814.1,43.2,814.1,43.2Z"/><path class="cls-1" d="M782.4,131.4s7.5-2.4,11.7,3.1"/><path class="cls-1" d="M845.1,131.5s-7.5-2.4-11.7,3.1"/><polyline class="cls-1" points="814.1 43.2 813.8 118.5 836.6 104.1"/><line class="cls-1" x1="791" y1="103.7" x2="813.8" y2="118.5"/><polyline class="cls-1" points="791.9 74.4 813.8 96.5 836.1 74.4"/><polyline class="cls-1" points="798.4 58.6 813.8 73.7 829.6 58.6"/><circle class="cls-7" cx="281" cy="96" r="68.4"/><path class="cls-4" d="M226.2,95.8s51,65.7,109.7.5C335.9,96.3,284.9,26.7,226.2,95.8Z"/><path class="cls-1" d="M226.1,76.6s51.2-57.7,109.9.1"/><path class="cls-1" d="M309.8,73.8l-10,6.6,16.6,18.8-27.2-5.5-8.5,23.5-8.5-23.5-27.7,5.5,17.1-18.8L253,72.9C272.9,62,288.1,62.1,309.8,73.8Z"/><line class="cls-1" x1="280.9" y1="141.3" x2="280.8" y2="125.8"/><line class="cls-1" x1="305.7" y1="134.3" x2="299" y2="122.3"/><line class="cls-1" x1="257.4" y1="134" x2="262.2" y2="122.1"/><path class="cls-1" d="M297.5,68.2,289.6,74l7,12.1-12.1-4.9-4,12.9-4.1-12.9-11.9,5L271.3,74l-8.1-5.7C275.4,63.6,287.3,64.6,297.5,68.2Z"/><circle class="cls-8" cx="459.8" cy="97.2" r="68.4"/><path class="cls-4" d="M416,86.8s-2.3,64.3,43.1,64.3c42.9,0,38.5-58.6,35.1-81.8a23.9,23.9,0,0,0-13.9-18.4,41.2,41.2,0,0,0-17.2-3.5,42.5,42.5,0,0,0-19.2,4.1,21.4,21.4,0,0,0-11.8,17.6l-1.2,21.1S425.5,79.2,416,86.8Z"/><path class="cls-1" d="M431.1,89.1c0,.9,3.9,20.4,3.9,20.4s28.8-4.9,39.4,19.1"/><line class="cls-1" x1="445.6" y1="51.2" x2="445.6" y2="63.3"/><line class="cls-1" x1="463.8" y1="63.2" x2="463.8" y2="47.8"/><line class="cls-1" x1="481.9" y1="63.3" x2="481.8" y2="51.8"/><rect class="cls-4" x="442.3" y="63.6" width="6.4" height="33.97"/><rect class="cls-4" x="460.6" y="63.6" width="6.4" height="33.97"/><rect class="cls-4" x="478.7" y="63.6" width="6.4" height="33.97"/></g></g></svg>