<svg xmlns="http://www.w3.org/2000/svg" viewBox="0 0 266.4 182.8"><defs><style>.cls-1{fill:none;}.cls-1,.cls-2,.cls-3,.cls-4,.cls-5,.cls-6,.cls-7{stroke:#030402;stroke-linecap:round;stroke-linejoin:round;stroke-width:1.5px;}.cls-2{fill:#f4ea5a;}.cls-3{fill:#fff;}.cls-4{fill:#65a9e0;}.cls-5{fill:#d47aa7;}.cls-6{fill:#e8b242;}.cls-7{fill:#93ba53;}</style></defs><g id="Capa_2" data-name="Capa 2"><g id="Capa_2-2" data-name="Capa 2"><line class="cls-1" x1="21.1" y1="36.7" x2="107.9" y2="123.4"/><line class="cls-1" x1="108.5" y1="34.9" x2="204" y2="130.4"/><line class="cls-1" x1="239.7" y1="40.8" x2="144.2" y2="136.3"/><line class="cls-1" x1="152.3" y1="40.8" x2="56.9" y2="136.3"/><rect class="cls-1" x="0.8" y="0.8" width="264.9" height="181.33" rx="33.9"/></g><g id="Capa_1-2" data-name="Capa 1"><circle class="cls-2" cx="45.6" cy="50.6" r="38"/><path class="cls-3" d="M29.6,47.3S25.4,19.8,50.9,20.8c8.3.3,23.3,6,19.8,27.1C68.6,60.2,57.9,60.7,56.9,66.8,54.5,82,34.3,82.1,31,70.9c0,0-11-1-11-11.8A11.4,11.4,0,0,1,29.6,47.3Z"/><path class="cls-1" d="M45.1,57.2s-.8-5.6-8.1-5.7c-11.9-.3-13.3,14-.8,14s9.1-9.4,8-13c-2-6.8-10.7-24.1,5.4-24.1S63.5,43.7,63.5,43.7L54,48.5s6.7-17.7-12.9-15.2"/><path class="cls-1" d="M40.8,69.6s7.9-.6,8.3-7.3"/><circle class="cls-4" cx="133.2" cy="50.2" r="38"/><path class="cls-3" d="M102.7,50.1s28.4,36.5,61,.3C163.7,50.4,135.4,11.7,102.7,50.1Z"/><path class="cls-1" d="M102.7,39.4s28.4-32.1,61.1.1"/><path class="cls-1" d="M149.2,37.9l-5.5,3.6L152.9,52l-15.1-3.1L133,62l-4.7-13.1L112.9,52l9.5-10.5-4.8-4.2C128.7,31.3,137.1,31.3,149.2,37.9Z"/><line class="cls-1" x1="133.1" y1="75.4" x2="133.1" y2="66.8"/><line class="cls-1" x1="146.9" y1="71.5" x2="143.2" y2="64.8"/><line class="cls-1" x1="120.1" y1="71.3" x2="122.8" y2="64.7"/><path class="cls-1" d="M142.3,34.8,138,37.9l3.9,6.8L135.2,42l-2.3,7.1L130.6,42,124,44.7l3.8-6.8-4.5-3.1A26.4,26.4,0,0,1,142.3,34.8Z"/><circle class="cls-5" cx="219.5" cy="50.2" r="38"/><path class="cls-3" d="M195.2,44.4s-1.3,35.8,24,35.8,21.4-32.6,19.5-45.5a13.6,13.6,0,0,0-7.8-10.3,22.8,22.8,0,0,0-9.5-1.9,25.2,25.2,0,0,0-10.7,2.2,11.8,11.8,0,0,0-6.5,9.8l-.7,11.8S200.5,40.1,195.2,44.4Z"/><path class="cls-1" d="M203.6,45.6c0,.6,2.2,11.4,2.2,11.4s16-2.7,21.9,10.6"/><line class="cls-1" x1="211.6" y1="24.6" x2="211.6" y2="31.3"/><line class="cls-1" x1="221.8" y1="31.2" x2="221.8" y2="22.7"/><line class="cls-1" x1="231.8" y1="31.3" x2="231.7" y2="24.9"/><rect class="cls-3" x="209.8" y="31.5" width="3.6" height="18.89"/><rect class="cls-3" x="220" y="31.5" width="3.6" height="18.89"/><rect class="cls-3" x="230" y="31.5" width="3.6" height="18.89"/><circle class="cls-6" cx="89" cy="134.7" r="38"/><path class="cls-3" d="M73.8,135.1s-5.1,28.5,15.1,28.5,15.2-28.5,15.2-28.5"/><line class="cls-1" x1="89" y1="135.1" x2="89" y2="154.9"/><path class="cls-3" d="M88.7,126.2c-1.8-23.1,13.9-21,13.9-21s-6.3,11.3-13.3,10.5"/><path class="cls-3" d="M88.7,126.2s.1-8.3-12.6-8.3-12.6,16.9-12.6,16.9h50.7s0-17-12.7-16.7S88.7,126.2,88.7,126.2Z"/><circle class="cls-7" cx="177.7" cy="134.8" r="38"/><path class="cls-3" d="M177.9,105.1s-17,8.5-12.8,33.8c0,0-12.7-2.1-12.7,12.6.1,12.8,14.4,8.5,14.4,4.3,0,0,4.8,7.9,10.9,7.9s11-7.8,11-7.8c0,4.2,14.4,8.4,14.4-4.3-.1-14.9-12.7-12.7-12.7-12.7C194.7,113.6,177.9,105.1,177.9,105.1Z"/><path class="cls-1" d="M160.3,154.1s4.2-1.3,6.5,1.7"/><path class="cls-1" d="M195.2,154.2s-4.2-1.4-6.5,1.7"/><polyline class="cls-1" points="177.9 105.1 177.8 146.9 190.4 138.9"/><line class="cls-1" x1="165.1" y1="138.7" x2="177.8" y2="146.9"/><polyline class="cls-1" points="165.5 122.4 177.8 134.7 190.1 122.4"/><polyline class="cls-1" points="169.2 113.6 177.8 122 186.5 113.6"/></g></g></svg>