<svg xmlns="http://www.w3.org/2000/svg" viewBox="0 0 87.6 87.5"><defs><style>.cls-1{font-size:5.8px;fill:#2ea7de;font-family:Poppins-Black, Poppins Black;font-weight:800;}</style></defs><g id="Capa_2" data-name="Capa 2"><g id="Capa_1-2" data-name="Capa 1"><text class="cls-1" transform="matrix(0.85, -0.52, 0.52, 0.85, 22.57, 11.42)">ยก</text><text class="cls-1" transform="translate(24.9 10) rotate(-27.5)">t</text><text class="cls-1" transform="translate(27.1 8.9) rotate(-22.9)">o</text><text class="cls-1" transform="matrix(0.95, -0.3, 0.3, 0.95, 30.44, 7.42)">d</text><text class="cls-1" transform="translate(34.2 6.3) rotate(-11.6)">o</text><text class="cls-1" transform="matrix(0.99, -0.14, 0.14, 0.99, 37.8, 5.56)"> </text><text class="cls-1" transform="matrix(0.99, -0.1, 0.1, 0.99, 38.78, 5.41)">l</text><text class="cls-1" transform="matrix(1, -0.03, 0.03, 1, 40.63, 5.19)">o</text><text class="cls-1" transform="translate(44.3 5.1) rotate(1.5)"> </text><text class="cls-1" transform="matrix(1, 0.09, -0.09, 1, 45.31, 5.08)">q</text><text class="cls-1" transform="translate(49.2 5.4) rotate(10.9)">u</text><text class="cls-1" transform="translate(53.1 6.2) rotate(16.5)">e</text><text class="cls-1" transform="translate(56.5 7.2) rotate(19.9)"> </text><text class="cls-1" transform="matrix(0.92, 0.4, -0.4, 0.92, 57.47, 7.53)">p</text><text class="cls-1" transform="translate(61.1 9.1) rotate(29.5)">u</text><text class="cls-1" transform="matrix(0.82, 0.57, -0.57, 0.82, 64.53, 11.07)">e</text><text class="cls-1" transform="translate(67.4 13.1) rotate(40.6)">d</text><text class="cls-1" transform="translate(70.4 15.6) rotate(46)">e</text><text class="cls-1" transform="matrix(0.63, 0.78, -0.78, 0.63, 72.85, 18.19)">s</text><text class="cls-1" transform="translate(74.9 20.8) rotate(54.3)"> </text><text class="cls-1" transform="translate(75.5 21.6) rotate(57.5)">s</text><text class="cls-1" transform="matrix(0.46, 0.89, -0.89, 0.46, 77.34, 24.43)">e</text><text class="cls-1" transform="translate(79 27.6) rotate(68.2)">n</text><text class="cls-1" transform="translate(80.4 31.3) rotate(73.1)">t</text><text class="cls-1" transform="matrix(0.24, 0.97, -0.97, 0.24, 81.17, 33.73)">i</text><text class="cls-1" transform="matrix(0.18, 0.98, -0.98, 0.18, 81.62, 35.54)">r</text><text class="cls-1" transform="translate(82.1 38.2) rotate(83.7)">!</text><text class="cls-1" transform="translate(82.4 40.7) rotate(86.2)"> </text><text class="cls-1" transform="matrix(0.02, 1, -1, 0.02, 82.44, 41.71)">ยก</text><text class="cls-1" transform="translate(82.5 44.4) rotate(92.8)">t</text><text class="cls-1" transform="translate(82.4 46.9) rotate(97.3)">o</text><text class="cls-1" transform="translate(81.9 50.5) rotate(102.9)">d</text><text class="cls-1" transform="translate(81.1 54.3) rotate(108.5)">o</text><text class="cls-1" transform="matrix(-0.37, 0.93, -0.93, -0.37, 79.85, 57.8)"> </text><text class="cls-1" transform="matrix(-0.41, 0.91, -0.91, -0.41, 79.47, 58.75)">l</text><text class="cls-1" transform="matrix(-0.47, 0.88, -0.88, -0.47, 78.74, 60.45)">o</text><text class="cls-1" transform="translate(77 63.7) rotate(121.8)"> </text><text class="cls-1" transform="matrix(-0.58, 0.82, -0.82, -0.58, 76.49, 64.53)">q</text><text class="cls-1" transform="matrix(-0.66, 0.75, -0.75, -0.66, 74.23, 67.71)">u</text><text class="cls-1" transform="matrix(-0.73, 0.68, -0.68, -0.73, 71.59, 70.72)">e</text><text class="cls-1" transform="matrix(-0.77, 0.64, -0.64, -0.77, 68.95, 73.14)"> </text><text class="cls-1" transform="matrix(-0.81, 0.59, -0.59, -0.81, 68.22, 73.81)">p</text><text class="cls-1" transform="translate(65.1 76.1) rotate(149.6)">u</text><text class="cls-1" transform="translate(61.6 78.1) rotate(155.2)">e</text><text class="cls-1" transform="matrix(-0.94, 0.33, -0.33, -0.94, 58.4, 79.63)">d</text><text class="cls-1" transform="translate(54.7 80.9) rotate(166.3)">e</text><text class="cls-1" transform="matrix(-0.99, 0.15, -0.15, -0.99, 51.26, 81.75)">s</text><text class="cls-1" transform="translate(47.9 82.2) rotate(174.7)"> </text><text class="cls-1" transform="matrix(-1, 0.04, -0.04, -1, 46.98, 82.34)">s</text><text class="cls-1" transform="translate(43.6 82.5) rotate(-177.1)">e</text><text class="cls-1" transform="translate(40.1 82.3) rotate(-171.6)">n</text><text class="cls-1" transform="matrix(-0.97, -0.23, 0.23, -0.97, 36.12, 81.68)">t</text><text class="cls-1" transform="matrix(-0.96, -0.28, 0.28, -0.96, 33.68, 81.1)">i</text><text class="cls-1" transform="translate(31.9 80.6) rotate(-160.1)">r</text><text class="cls-1" transform="translate(29.3 79.6) rotate(-156.1)">!</text><text class="cls-1" transform="translate(27 78.6) rotate(-153.5)"> </text><text class="cls-1" transform="matrix(-0.87, -0.49, 0.49, -0.87, 26.13, 78.18)">ยก</text><text class="cls-1" transform="translate(23.8 76.9) rotate(-146.9)">t</text><text class="cls-1" transform="matrix(-0.79, -0.61, 0.61, -0.79, 21.69, 75.53)">o</text><text class="cls-1" transform="translate(18.8 73.3) rotate(-136.8)">d</text><text class="cls-1" transform="matrix(-0.66, -0.75, 0.75, -0.66, 15.93, 70.62)">o</text><text class="cls-1" transform="matrix(-0.61, -0.79, 0.79, -0.61, 13.54, 67.83)"> </text><text class="cls-1" transform="matrix(-0.58, -0.81, 0.81, -0.58, 12.92, 67.04)">l</text><text class="cls-1" transform="translate(11.8 65.5) rotate(-121.6)">o</text><text class="cls-1" transform="translate(9.9 62.4) rotate(-118.1)"> </text><text class="cls-1" transform="translate(9.4 61.5) rotate(-114.4)">q</text><text class="cls-1" transform="matrix(-0.32, -0.95, 0.95, -0.32, 7.79, 57.99)">u</text><text class="cls-1" transform="matrix(-0.22, -0.97, 0.97, -0.22, 6.52, 54.17)">e</text><text class="cls-1" transform="translate(5.8 50.7) rotate(-99.5)"> </text><text class="cls-1" transform="translate(5.6 49.7) rotate(-95.9)">p</text><text class="cls-1" transform="translate(5.2 45.8) rotate(-90.7)">u</text><text class="cls-1" transform="translate(5.2 41.8) rotate(-84.6)">e</text><text class="cls-1" transform="matrix(0.19, -0.98, 0.98, 0.19, 5.48, 38.31)">d</text><text class="cls-1" transform="matrix(0.28, -0.96, 0.96, 0.28, 6.22, 34.48)">e</text><text class="cls-1" transform="translate(7.2 31.1) rotate(-68.4)">s</text><text class="cls-1" transform="matrix(0.42, -0.91, 0.91, 0.42, 8.5, 27.97)"> </text><text class="cls-1" transform="translate(8.9 27.1) rotate(-61.9)">s</text><text class="cls-1" transform="matrix(0.55, -0.84, 0.84, 0.55, 10.45, 24.12)">e</text><text class="cls-1" transform="translate(12.4 21.2) rotate(-51.3)">n</text><text class="cls-1" transform="matrix(0.69, -0.72, 0.72, 0.69, 14.92, 18.04)">t</text><text class="cls-1" transform="translate(16.7 16.2) rotate(-43.2)">i</text><text class="cls-1" transform="matrix(0.77, -0.64, 0.64, 0.77, 18.01, 14.94)">r</text><text class="cls-1" transform="translate(20.1 13.2) rotate(-36)">!</text></g></g></svg>