<svg xmlns="http://www.w3.org/2000/svg" viewBox="0 0 88.4 88.3"><defs><style>.cls-1{font-size:6.25px;fill:#79ae43;font-family:Poppins-Black, Poppins Black;font-weight:800;}</style></defs><g id="Capa_2" data-name="Capa 2"><g id="Capa_1-2" data-name="Capa 1"><text class="cls-1" transform="translate(23 11.8) rotate(-31.2)">ยก</text><text class="cls-1" transform="matrix(0.9, -0.44, 0.44, 0.9, 25.39, 10.31)">c</text><text class="cls-1" transform="translate(28.8 8.6) rotate(-20.5)">o</text><text class="cls-1" transform="translate(32.4 7.2) rotate(-14.4)">n</text><text class="cls-1" transform="translate(36.6 6.2) rotate(-8.3)">o</text><text class="cls-1" transform="translate(40.5 5.6) rotate(-2.6)">c</text><text class="cls-1" transform="matrix(1, 0.05, -0.05, 1, 44.27, 5.44)">e</text><text class="cls-1" transform="translate(48.1 5.7) rotate(6.5)"> </text><text class="cls-1" transform="translate(49.1 5.7) rotate(10.5)">n</text><text class="cls-1" transform="translate(53.4 6.5) rotate(16.9)">u</text><text class="cls-1" transform="translate(57.5 7.8) rotate(22.9)">e</text><text class="cls-1" transform="translate(61 9.3) rotate(28.4)">s</text><text class="cls-1" transform="translate(64.1 11) rotate(33.1)">t</text><text class="cls-1" transform="translate(66.4 12.5) rotate(37.2)">r</text><text class="cls-1" transform="translate(68.7 14.2) rotate(42.2)">o</text><text class="cls-1" transform="matrix(0.7, 0.72, -0.72, 0.7, 71.6, 16.88)"> </text><text class="cls-1" transform="matrix(0.66, 0.75, -0.75, 0.66, 72.36, 17.63)">r</text><text class="cls-1" transform="translate(74.3 19.8) rotate(53.8)">e</text><text class="cls-1" transform="translate(76.5 22.9) rotate(59.4)">c</text><text class="cls-1" transform="translate(78.4 26.1) rotate(63.7)">i</text><text class="cls-1" transform="translate(79.3 27.9) rotate(68.4)">n</text><text class="cls-1" transform="translate(80.9 31.9) rotate(73.6)">t</text><text class="cls-1" transform="matrix(0.2, 0.98, -0.98, 0.2, 81.69, 34.48)">o</text><text class="cls-1" transform="translate(82.4 38.3) rotate(83.4)">!</text><text class="cls-1" transform="translate(82.7 41.1) rotate(86.2)"> </text><text class="cls-1" transform="translate(82.8 42.1) rotate(89.1)">ยก</text><text class="cls-1" transform="matrix(-0.07, 1, -1, -0.07, 82.9, 44.99)">c</text><text class="cls-1" transform="translate(82.6 48.7) rotate(99.6)">o</text><text class="cls-1" transform="translate(82 52.6) rotate(105.8)">n</text><text class="cls-1" transform="translate(80.8 56.7) rotate(111.9)">o</text><text class="cls-1" transform="translate(79.3 60.4) rotate(117.7)">c</text><text class="cls-1" transform="translate(77.6 63.7) rotate(123.2)">e</text><text class="cls-1" transform="translate(75.5 66.9) rotate(126.9)"> </text><text class="cls-1" transform="translate(74.9 67.8) rotate(130.8)">n</text><text class="cls-1" transform="translate(72.1 71) rotate(137.2)">u</text><text class="cls-1" transform="matrix(-0.8, 0.6, -0.6, -0.8, 68.93, 73.93)">e</text><text class="cls-1" transform="translate(65.9 76.2) rotate(148.6)">s</text><text class="cls-1" transform="translate(62.8 78.1) rotate(153.2)">t</text><text class="cls-1" transform="translate(60.4 79.3) rotate(157.4)">r</text><text class="cls-1" transform="translate(57.7 80.4) rotate(162.5)">o</text><text class="cls-1" transform="matrix(-0.97, 0.24, -0.24, -0.97, 53.93, 81.58)"> </text><text class="cls-1" transform="matrix(-0.98, 0.19, -0.19, -0.98, 52.91, 81.86)">r</text><text class="cls-1" transform="translate(50.1 82.4) rotate(174.2)">e</text><text class="cls-1" transform="translate(46.3 82.8) rotate(179.3)">c</text><text class="cls-1" transform="translate(42.5 82.8) rotate(-176.1)">i</text><text class="cls-1" transform="translate(40.5 82.7) rotate(-171.4)">n</text><text class="cls-1" transform="translate(36.3 82) rotate(-166.2)">t</text><text class="cls-1" transform="translate(33.6 81.4) rotate(-161.2)">o</text><text class="cls-1" transform="matrix(-0.92, -0.4, 0.4, -0.92, 29.92, 80.12)">!</text><text class="cls-1" transform="translate(27.4 79) rotate(-153.5)"> </text><text class="cls-1" transform="matrix(-0.87, -0.49, 0.49, -0.87, 26.48, 78.55)">ยก</text><text class="cls-1" transform="matrix(-0.83, -0.56, 0.56, -0.83, 23.97, 77.16)">c</text><text class="cls-1" transform="matrix(-0.77, -0.64, 0.64, -0.77, 20.87, 75.05)">o</text><text class="cls-1" transform="translate(17.8 72.5) rotate(-133.9)">n</text><text class="cls-1" transform="translate(14.9 69.4) rotate(-127.9)">o</text><text class="cls-1" transform="translate(12.5 66.3) rotate(-122.2)">c</text><text class="cls-1" transform="translate(10.5 63.1) rotate(-116.6)">e</text><text class="cls-1" transform="translate(8.8 59.7) rotate(-113)"> </text><text class="cls-1" transform="matrix(-0.32, -0.95, 0.95, -0.32, 8.32, 58.77)">n</text><text class="cls-1" transform="translate(6.9 54.7) rotate(-102.5)">u</text><text class="cls-1" transform="translate(6 50.5) rotate(-96.5)">e</text><text class="cls-1" transform="translate(5.6 46.7) rotate(-91.1)">s</text><text class="cls-1" transform="translate(5.5 43.1) rotate(-86.5)">t</text><text class="cls-1" transform="translate(5.7 40.4) rotate(-82.4)">r</text><text class="cls-1" transform="translate(6 37.6) rotate(-77.3)">o</text><text class="cls-1" transform="translate(7 33.7) rotate(-73.6)"> </text><text class="cls-1" transform="translate(7.2 32.7) rotate(-70.6)">r</text><text class="cls-1" transform="translate(8.2 30) rotate(-65.6)">e</text><text class="cls-1" transform="matrix(0.5, -0.87, 0.87, 0.5, 9.74, 26.49)">c</text><text class="cls-1" transform="matrix(0.56, -0.83, 0.83, 0.56, 11.66, 23.24)">i</text><text class="cls-1" transform="translate(12.7 21.6) rotate(-51)">n</text><text class="cls-1" transform="translate(15.5 18.2) rotate(-45.9)">t</text><text class="cls-1" transform="translate(17.3 16.3) rotate(-41)">o</text><text class="cls-1" transform="translate(20.3 13.7) rotate(-36.1)">!</text></g></g></svg>