<svg xmlns="http://www.w3.org/2000/svg" viewBox="0 0 90 89.9"><defs><style>.cls-1{font-size:7.18px;fill:#e5aa48;font-family:Poppins-Black, Poppins Black;font-weight:800;}</style></defs><g id="Capa_2" data-name="Capa 2"><g id="Capa_1-2" data-name="Capa 1"><text class="cls-1" transform="translate(24 12.4) rotate(-30.4)">ยก</text><text class="cls-1" transform="translate(26.8 10.7) rotate(-24.8)">c</text><text class="cls-1" transform="translate(30.7 8.9) rotate(-18.3)">o</text><text class="cls-1" transform="translate(34.8 7.4) rotate(-9.4)">m</text><text class="cls-1" transform="translate(42.3 6.3) rotate(-0.7)">p</text><text class="cls-1" transform="matrix(1, 0.1, -0.1, 1, 47.12, 6.29)">r</text><text class="cls-1" transform="translate(50.4 6.6) rotate(11.5)">a</text><text class="cls-1" transform="matrix(0.96, 0.28, -0.28, 0.96, 55.08, 7.6)"> </text><text class="cls-1" transform="matrix(0.94, 0.35, -0.35, 0.94, 56.21, 7.85)">y</text><text class="cls-1" transform="matrix(0.89, 0.46, -0.46, 0.89, 60.67, 9.5)">a</text><text class="cls-1" transform="matrix(0.85, 0.53, -0.53, 0.85, 64.9, 11.78)"> </text><text class="cls-1" transform="translate(65.9 12.4) rotate(35.1)">t</text><text class="cls-1" transform="matrix(0.76, 0.66, -0.66, 0.76, 68.43, 14.09)">u</text><text class="cls-1" transform="translate(72.1 17.4) rotate(45.5)"> </text><text class="cls-1" transform="translate(73 18.2) rotate(49.8)">a</text><text class="cls-1" transform="translate(76.1 21.8) rotate(56.9)">b</text><text class="cls-1" transform="matrix(0.44, 0.9, -0.9, 0.44, 78.66, 25.79)">o</text><text class="cls-1" transform="translate(80.7 29.8) rotate(70.7)">n</text><text class="cls-1" transform="matrix(0.21, 0.98, -0.98, 0.21, 82.27, 34.42)">o</text><text class="cls-1" transform="matrix(0.12, 0.99, -0.99, 0.12, 83.2, 38.8)">!</text><text class="cls-1" transform="translate(83.5 41.8) rotate(86.4)"> </text><text class="cls-1" transform="translate(83.6 43) rotate(89.3)">ยก</text><text class="cls-1" transform="translate(83.7 46.3) rotate(95.1)">c</text><text class="cls-1" transform="translate(83.3 50.5) rotate(101.6)">o</text><text class="cls-1" transform="translate(82.6 54.9) rotate(110.6)">m</text><text class="cls-1" transform="translate(79.8 61.9) rotate(119.7)">p</text><text class="cls-1" transform="translate(77.4 66.1) rotate(125.7)">r</text><text class="cls-1" transform="matrix(-0.66, 0.75, -0.75, -0.66, 75.53, 68.77)">a</text><text class="cls-1" transform="translate(72.3 72.3) rotate(136)"> </text><text class="cls-1" transform="matrix(-0.77, 0.64, -0.64, -0.77, 71.51, 73.17)">y</text><text class="cls-1" transform="translate(67.8 76.2) rotate(147.4)">a</text><text class="cls-1" transform="matrix(-0.88, 0.47, -0.47, -0.88, 63.76, 78.75)"> </text><text class="cls-1" transform="translate(62.7 79.3) rotate(155)">t</text><text class="cls-1" transform="translate(60 80.7) rotate(160.9)">u</text><text class="cls-1" transform="translate(55.3 82.2) rotate(165.5)"> </text><text class="cls-1" transform="translate(54.2 82.6) rotate(169.9)">a</text><text class="cls-1" transform="translate(49.5 83.4) rotate(177)">b</text><text class="cls-1" transform="translate(44.7 83.7) rotate(-176.3)">o</text><text class="cls-1" transform="translate(40.3 83.4) rotate(-169.4)">n</text><text class="cls-1" transform="translate(35.5 82.5) rotate(-162.4)">o</text><text class="cls-1" transform="translate(31.2 81.1) rotate(-156.8)">!</text><text class="cls-1" transform="translate(28.4 79.9) rotate(-153.6)"> </text><text class="cls-1" transform="translate(27.3 79.4) rotate(-150.3)">ยก</text><text class="cls-1" transform="matrix(-0.82, -0.58, 0.58, -0.82, 24.5, 77.8)">c</text><text class="cls-1" transform="translate(21 75.4) rotate(-138.4)">o</text><text class="cls-1" transform="translate(17.6 72.5) rotate(-129.5)">m</text><text class="cls-1" transform="translate(12.9 66.6) rotate(-120.4)">p</text><text class="cls-1" transform="translate(10.5 62.4) rotate(-114.4)">r</text><text class="cls-1" transform="matrix(-0.32, -0.95, 0.95, -0.32, 9.08, 59.5)">a</text><text class="cls-1" transform="matrix(-0.24, -0.97, 0.97, -0.24, 7.62, 54.92)"> </text><text class="cls-1" transform="translate(7.3 53.8) rotate(-99.6)">y</text><text class="cls-1" transform="translate(6.5 49.1) rotate(-92.5)">a</text><text class="cls-1" transform="translate(6.3 44.3) rotate(-88.2)"> </text><text class="cls-1" transform="translate(6.3 43.1) rotate(-85.1)">t</text><text class="cls-1" transform="translate(6.5 40.1) rotate(-79.2)">u</text><text class="cls-1" transform="matrix(0.27, -0.96, 0.96, 0.27, 7.54, 35.25)"> </text><text class="cls-1" transform="translate(7.8 34.1) rotate(-70.2)">a</text><text class="cls-1" transform="translate(9.4 29.6) rotate(-63.1)">b</text><text class="cls-1" transform="matrix(0.56, -0.83, 0.83, 0.56, 11.55, 25.37)">o</text><text class="cls-1" transform="matrix(0.65, -0.76, 0.76, 0.65, 14.02, 21.65)">n</text><text class="cls-1" transform="matrix(0.74, -0.68, 0.68, 0.74, 17.21, 17.95)">o</text><text class="cls-1" transform="translate(20.5 15) rotate(-36.9)">!</text></g></g></svg>