<svg xmlns="http://www.w3.org/2000/svg" viewBox="0 0 405.9 441.2"><defs><style>.cls-1{fill:#faed43;}.cls-1,.cls-2,.cls-3,.cls-4,.cls-5{stroke:#000;stroke-linecap:round;stroke-linejoin:round;}.cls-1,.cls-2,.cls-3{stroke-width:12px;}.cls-2{fill:#f6f6f6;}.cls-3{fill:none;}.cls-4,.cls-5{fill:#ee7aaa;}.cls-4{stroke-width:10px;}.cls-5{stroke-width:6px;}</style></defs><g id="Capa_2" data-name="Capa 2"><g id="Capa_15" data-name="Capa 15"><polyline class="cls-1" points="171.3 359.1 211.2 380 171.1 391.7 187 425.5 147 407 124.5 435.2 114.8 400.5 70.8 401.8 98.6 377 66.3 350.5 109 346.5"/><path class="cls-2" d="M364.7,56C320,18.4,247.5-21.7,179.1,32.3L111,97.4a30,30,0,0,0-9.3,30.6c4.1,15,13.9,37.8,37,65.3l19.5-84.2L111.6,338.2a31.8,31.8,0,0,0,24.3,37.3h0a31.7,31.7,0,0,0,38-24.6l15.3-75.1L356.6,277a19.3,19.3,0,0,0,19-15.4l22.3-109.5A99.5,99.5,0,0,0,364.7,56Z"/><line class="cls-3" x1="206.4" y1="192.2" x2="189.2" y2="275.8"/><line class="cls-3" x1="272.7" y1="210.1" x2="259.8" y2="275.8"/><line class="cls-3" x1="341.5" y1="224.1" x2="334.6" y2="269.8"/><polygon class="cls-4" points="51.8 237.8 73.5 250.7 50.9 262 37.9 283.6 26.7 261 5 248.1 27.6 236.8 40.5 215.2 51.8 237.8"/><polygon class="cls-5" points="286.1 350.6 292 365 276.8 362.2 262.5 368 265.2 352.8 259.4 338.5 274.6 341.3 288.9 335.4 286.1 350.6"/></g></g></svg>
