<svg xmlns="http://www.w3.org/2000/svg" viewBox="0 0 841.9 595.3"><defs><style>.cls-1{fill:#65a9e0;}.cls-1,.cls-11,.cls-12{opacity:0.9;}.cls-2{fill:#4f83ab;}.cls-3,.cls-4{fill:#93ba53;}.cls-10,.cls-13,.cls-3,.cls-4,.cls-8,.cls-9{stroke:#232422;}.cls-10,.cls-11,.cls-12,.cls-13,.cls-3,.cls-4,.cls-5,.cls-6,.cls-7,.cls-8,.cls-9{stroke-linecap:round;stroke-linejoin:round;}.cls-3{stroke-width:6px;}.cls-10,.cls-4,.cls-6,.cls-7,.cls-8,.cls-9{stroke-width:5px;}.cls-5,.cls-6,.cls-7,.cls-9{fill:none;}.cls-11,.cls-12,.cls-5,.cls-6{stroke:#f6f6f6;}.cls-13,.cls-5{stroke-width:4px;}.cls-5,.cls-6{opacity:0.6;}.cls-7{stroke:#4f83ab;}.cls-8{fill:#f4ea5a;}.cls-10{fill:#d47aa7;}.cls-11,.cls-12{fill:#f6f6f6;}.cls-11{stroke-width:3.2px;}.cls-12{stroke-width:3.12px;}.cls-13{fill:#fff;}</style></defs><g id="Capa_2" data-name="Capa 2"><g id="Capa_1-2" data-name="Capa 1"><rect class="cls-1" width="841.9" height="595.28"/><path class="cls-2" d="M119.1,437.3c4.6.9,10.2-.9,11.4-5.9.2-1,.2-2,.3-3s.2-.9,0-.2l.3-1.3.6-2.2c.1-.1.7-1.3.2-.4s1-1.3,0-.4l-2.2,1.3c-1.8.6-3.4-.8-2,.1l1,.6,1.9,1.1a7.2,7.2,0,0,0,7.1-.1c3-2,4.3-5.5,5.2-8.8a16,16,0,0,0,.5-2.1,12.3,12.3,0,0,0,.2-2c.1-.6-.2.8.1-.1s.4-1.1.1-.6.2-.3.3-.4a13.4,13.4,0,0,0,1.2-2.4,7.1,7.1,0,0,0-1.4-6.1,9.5,9.5,0,0,1-1-1.7,3.1,3.1,0,0,1-.5-1c-.5-.9.2.7-.2-.4s-3.4-4.4-6.2-3.5-4.4,3.5-3.5,6.1a29.7,29.7,0,0,0,3,5.9l.4.6a3.3,3.3,0,0,1-.2-2.9c.2-.4.2-.4,0,.1l-.5.6a11.1,11.1,0,0,0-1.2,3l-.3,2.2c0,.3-.1.6-.1.8s.1-.6,0-.2-.5,2-.8,2.9a5.6,5.6,0,0,1-.4,1.2v-.2l-.3.6-.3.5c.4-.6.4-.6,0-.2l1.3-.7q3.8.9,2.1,0c-1.8-1.2-4.3-2.8-6.6-2.8s-5.3,3.3-6.4,6.3a31.4,31.4,0,0,0-1.5,6.6,6.2,6.2,0,0,1-.1,1.3,2.3,2.3,0,0,1,1.3-2c-.8.6.8-.2-.2.1h0c-.6,0-.6,0,0,.1a5.1,5.1,0,0,0-6.2,3.5c-.5,2.5.8,5.5,3.5,6.1Z"/><path class="cls-2" d="M643.1,120.1a7.4,7.4,0,0,0-3.5,3.5c-1.6,3.2-.1,6.1,3,7.4-1.3-.5.4.2.7.4l.3.2h-.1l.7.6.6.7c.8.8-.4-.6,0,0a9.5,9.5,0,0,1,1,1.7c.6,1-.2-1,.1.1l.3.9a2.9,2.9,0,0,0,.2.9c.2,1.1,0-.8,0-.1a2.7,2.7,0,0,0,0,.9c0,.2-.2,1.3,0,.5s-.6,1,.1-.3c-.2.4-.2.4.1-.1l-.4.5a9.8,9.8,0,0,0-3,5.2,6.7,6.7,0,0,0,3.3,6.8,21.4,21.4,0,0,0,8.9,3c6.4.9,12.7.1,19.1.1l4.4.2h.9c-1.2-.1.3.1.4.1l2.7.6a70.7,70.7,0,0,1,9.2,3l.8.4.5.2,2.1.9c1.5.7,2.9,1.3,4.3,2.1l.7.4.4.2c.5.4.4.4-.1,0a3.2,3.2,0,0,1,1.2,1.1,32.2,32.2,0,0,1,2.4,2.8,28.1,28.1,0,0,0,5.5,5.4c2.8,1.9,5.9,2.1,9.2,2h1.1c.7-.1-.8-.3.1,0s.9.4.2,0,0,.1.1.1l.8.5c.4.3,0,.3-.4-.3a14.2,14.2,0,0,0,1.3,1.2c1.5,1.5,2.8,3.2,4.4,4.6a11.7,11.7,0,0,0,8.7,3.1l2.2-.2h1.2c1,.1-.6-.5.1.1s.1-.1-.1-.2a6.5,6.5,0,0,1,1.6,1.7c3,3.3,6.4,6.3,11.2,5.4s7.1-5.2,7.4-9.6a47.8,47.8,0,0,0-.2-5.3,16.7,16.7,0,0,0-1.5-6.6c-1.7-3.3-4.8-5.5-7.7-7.5a5,5,0,0,0-5,8.6l1.5,1.1c1,.7-.5-.5.1,0a4.6,4.6,0,0,1,.7.7,4,4,0,0,1,1.3,1.3c0-.1-.6-1-.1-.1s.6.7.5.9l-.2-.5.3.8c0,.2.2,1,0,0,.1.7.1,1.4.2,2.2s.2,2.9.1,4.4c.1-1,0,.1-.1.3v-.2c-.4,1,.5-.4.1,0s-.9.5.1,0,.5-.3.1-.2h.6c.7.2.8.1.2,0s.9.5.1,0-.9-.7-.3-.1c-2.2-1.9-3.6-4.4-6.2-5.8a10.2,10.2,0,0,0-5.7-1.3l-2.1.2h-1.8c-.7-.2-.1-.4.3.1a2.9,2.9,0,0,0-1.2-.7c.1,0,.9.8.3.2l-.5-.5-1.2-1.1a32.4,32.4,0,0,0-4.9-4.9,12.7,12.7,0,0,0-8.2-2.3h-2.1c-.1.1-.9-.2-.9-.2s.2-.2.3.1l-.7-.4-.6-.4.4.3-.4-.3a51.5,51.5,0,0,1-4.3-5c-4-4.7-9.7-6.8-15.3-9.1a53.4,53.4,0,0,0-18.4-4.5c-5.8-.3-11.5.6-17.2.3H657l-1.2-.2-2.4-.7-.7-.3c1,.4-.2,0-.4-.1s-.9-.8-.2,0l1,2.3a2.5,2.5,0,0,1-.2,1.2c-.4.8-.3.3,0,.1l.9-1a11.2,11.2,0,0,0,2.6-6.7,16.9,16.9,0,0,0-11.2-16.3l3,7.4c.4-.8-.5.4-.1,0s-.9.5,0,0a4.9,4.9,0,0,0,1.8-6.8,5,5,0,0,0-6.8-1.8Z"/><path class="cls-2" d="M557.4,227.7a11.1,11.1,0,0,0-8.7,3.6,16.6,16.6,0,0,0-4.1,8.4,66.3,66.3,0,0,1-1.8,7.7l-.5,1.4c-.5,1.2.3-.6,0,.1a5.6,5.6,0,0,0-.5.8,32.4,32.4,0,0,1-1.7,3.2l-1,1.4c-.5.7,0,0,.1-.1l-.6.7a21.6,21.6,0,0,1-2.5,2.7l-1.5,1.2c-.2.2-.5.7.1,0l-.6.4c-.9.7-2,1.3-3,2-4.8,3-9.2,7-8.9,13.3a12.8,12.8,0,0,0,.1,1.9v.2c-.2.2-.5,1.1-.1.2-.5,1.3-1.2,2.5-1.8,3.8a88.9,88.9,0,0,0-3.2,8.6c-.9,2.7-1.7,5.5-2.6,8.2s-.8,2.4-1.3,3.6.3-.7,0,0l-.4.9-.9,1.8c-.5,1-1.1,2-1.7,3l-1,1.4c-.5.6.8-.9-.1,0l-.7.9a13.4,13.4,0,0,1-2.5,2.3c.1,0,.8-.6.1-.1l-.6.5-1.9,1a15.5,15.5,0,0,0-3.7,2.6,10,10,0,0,0-1.6,1.9c-.3.4-.6,1.2-1,1.5s.4-.4,0-.1v.2c-.4.3-.3.3.2-.1s-.6.4-.6.4.6-.3.1-.2c1.1-.2.2,0-.1,0h-1l-2.1-.2a12.2,12.2,0,0,0-8.7,2.2,21.4,21.4,0,0,0-5.9,6.8l-1.8,3.1a10,10,0,0,1-.8,1.4l-.3.4-.5.5-.7.7c-.5.6.2,0,.2-.1s-.5.3-.6.4h-.2c-.4.2-.4.2,0,.1l.3-.2-.7.2-.6.2c.1-.3,1.1-.1.4-.1h-1c.3-.2,1.2.2.3,0s.2-.2.2.1l-.5-.3.5.4c-.3-.3-.3-.3,0,.1l.2.2a4.3,4.3,0,0,1-.4-.7c.1.2.3.9.1.1a14.6,14.6,0,0,0-.5-2,17.7,17.7,0,0,0-4.7-7.6l-2-1.7a4.8,4.8,0,0,1-1.4-.9c0,.2.6.5.1,0s-.7-.9-.3-.3v.2c-.2-.5-.2-.4,0,.2a4.2,4.2,0,0,1-.3-1.2c-.8-2.9-1.5-5.5-3.7-7.8-3.7-4.1-9.9-5.7-15.1-7.1a97.5,97.5,0,0,0-18.5-2.9,82.3,82.3,0,0,0-8.6-.1h-2.5c1,.4.3,0,0,0l-1-.3c.9.5.5.1.2,0s.3.3-.1-.1a6,6,0,0,0-.8-.8,13.4,13.4,0,0,0-4.4-2.7l-1.6-.4-.6-.2c-.7-.1-.8-.2-.1.1s.2.4.3.5l.2.2c-.3-.4-.3-.4,0,.2s-.3-1.2-.3-1.5,0,.1,0-.2a4.1,4.1,0,0,0-.1-1.1v-2.1c.1-5.4,1.4-10.8.9-16.1a23.5,23.5,0,0,0-2.5-9.4,29.4,29.4,0,0,0-5.1-6.9c-4.1-4.4-8.6-8.5-14.8-8.9s-9.2,1.9-13.8,2.8c-1.1.1.1-.2.1,0s-.7,0-.6,0h-1.5c-1,0,.1-.2.2.1l-.6-.2h-.6c-1.1-.3,1,.5,0-.1s-5.6-.7-6.9,1.8-.7,5.6,1.8,6.9c5,2.6,10.2,1.5,15.3,0l3.1-.8a5.9,5.9,0,0,1,1.7-.4s-1.3.1-.3.1h2.4l.7.2c.9.2.1-.1-.1-.1l.9.5.8.5.3.2a59,59,0,0,1,5.7,5.5,14.7,14.7,0,0,1,1,1.3c-.6-.8,0-.1.2.1l.5.9a14,14,0,0,1,1,1.6v.2l.4,1.2a7.5,7.5,0,0,1,.4,1.6,3.6,3.6,0,0,1,.2,1c.2.8,0-1.2,0,.1a28.1,28.1,0,0,1,.1,4.1c-.1,2.7-.5,5.4-.7,8.2a37.4,37.4,0,0,0-.1,8.2c.4,3.5,1.4,7,4.9,8.7a29.1,29.1,0,0,0,3.9,1.2c.3.1,1.4.5.1,0,.3.1.7.5,0-.1l1.4,1.3a13.8,13.8,0,0,0,9.3,3.3c2.9,0,5.8-.1,8.6,0l4.2.4,2.2.2c.9.1-1.2-.2.3,0l1.4.2c2.9.5,5.8,1.1,8.7,1.9l4.1,1.2,2,.6.8.3c.3.1,1.4.5.2.1a11.8,11.8,0,0,1,2.9,1.6c.7.4-.2,0-.1-.2l.5.5.6.6q.3.5-.3-.3l.3.5c.5.8.3,0,.1,0l.2.7a12.9,12.9,0,0,1,.4,1.9,12.8,12.8,0,0,0,2.1,4.6A14.7,14.7,0,0,0,460,331c.2.2.6.3.8.6s-.8-.7-.2-.1l.7.6.5.6c-.5-.6.3.3.3.4l.4.6a1.6,1.6,0,0,0,.4.7c.5,1.1-.2-.7,0,0a21.5,21.5,0,0,0,1.4,4.5c2.6,6,10.6,6.9,15.7,3.7a21.5,21.5,0,0,0,6-6.7l1.7-3.1,1-1.7c.1-.1.3-.5.5-.6s-.4.5-.2.2.2-.3.4-.4a13.6,13.6,0,0,1,1.2-1.2c.5-.5-1,.5,0,0l.7-.4h-.2l.4-.2c-.7.3.4,0,.6,0h1.2c3.2.3,6.3.6,9.2-1.3a14.6,14.6,0,0,0,3.4-3.6l.9-1.1c.6-1-.6.5,0,0s1.1-.9.2-.3a44.5,44.5,0,0,0,6.8-4.5c8.5-7.5,10.6-19.2,14.2-29.4a18,18,0,0,1,.8-2.1l.3-.8c-.3.8,0,.1,0-.1s1.4-2.6,1.9-3.9a13.5,13.5,0,0,0,1.3-5.6c-.1-.8-.1-1.6-.2-2.4s.3.2,0,.2.2-.9.3-.9-.6.9-.2.3l.5-.6c.2-.6-.9.8-.1.1l.4-.5.5-.4.3-.3c-.5.6.2-.2.3-.2l.9-.6a73.3,73.3,0,0,0,6.4-4.5,33.4,33.4,0,0,0,9.3-11.8,32.8,32.8,0,0,0,2.7-7.8c.3-1.3.5-2.7.8-4a16.2,16.2,0,0,1,.4-1.9l.3-.8c.4-1.1-.3.4.2-.4s.3-.8.5-.9-.7.8,0,.1l.5-.5c.7-.9-.6.3,0,0s.6-.6.7-.5-.9.5-.2.1-.3.1-.2,0,.9,0,1,0a5,5,0,0,0,5-5c-.1-2.9-2.2-4.7-5-5Z"/><path class="cls-2" d="M320.3,244c-.5.1-1.6.1-.1.1h-.9a11.3,11.3,0,0,0-3.2.6,7.3,7.3,0,0,0-4.1,5.8,22.4,22.4,0,0,0-.2,7.3,10.4,10.4,0,0,0,4.3,6.5c3.6,2.8,8,3.4,12.4,3.7l1.8.2h.7a20.9,20.9,0,0,1,3.6.8l3.4,1,.8.3c-.1,0-1-.5-.2,0s1.1.4,1.2.7-.6-.6-.2-.1.5.6-.1-.3,0,.5,0,0-.2-1.5-.2-.8.2-1,0-.4.1-.3.2-.4a6.4,6.4,0,0,0-.8,1.4,8.7,8.7,0,0,0-.4,8.7,11.7,11.7,0,0,0,5.1,5c2,1.2,4.2,2.2,6.3,3.2a6.6,6.6,0,0,0,6.4,0,9,9,0,0,0,3.3-3.4,17.7,17.7,0,0,0,2.5-6.6c.1-1.2.3-2.4.4-3.6s.1-.4.1-.7-.1.5-.1.5a7,7,0,0,0,.3-1.4,1.4,1.4,0,0,0,.2-.6c.1-.5-.1.4-.2.4l.3-.5c.3-.8-.1.3-.3.3s.4-.6.5-.5-1.3.6-.2.2h-.3l.9-.2a78.5,78.5,0,0,1,8.2-1.5l4.2-.7h1.7c-.5,0,.3-.1.3-.1h1.5a81.5,81.5,0,0,1,17.1-.4c2.6.3,5.1-2.4,5-5s-2.2-4.7-5-5c-9.8-.9-19.5.5-29.1,2.1-2.2.4-4.4.7-6.5,1.2a10.1,10.1,0,0,0-6.4,4.4,12.1,12.1,0,0,0-1.9,5.2c-.1,1.1-.3,2.2-.4,3.4s-.3,1.4-.1.7.1-.2,0,0-.1.5-.1.8l-.5,1.5c.1-.1.4-.8.1-.3l-.4.8a3.2,3.2,0,0,1-.8,1.2c.1,0,.6-.6.2-.2s.2.8,3.8-.6l-.5-.2c-1.8-1.1-3.9-1.9-5.7-3l-.5-.3c-.6-.4.2,0,.1.2l-.7-.8c-.7-.5,0,.1.1.3s-.2-.7.1.3-.1-.7-.1,0,.3-1.1,0,.7c.1-.8-.4.6,0-.1a4.1,4.1,0,0,0,.7-1.1,12.3,12.3,0,0,0,1.4-4.2c.5-5.7-5-8.7-9.6-10.2s-8.9-1.9-13.4-2.4h-.5l-1.4-.3a5,5,0,0,1-1.3-.4s1.1.5.3.1l-.7-.4-1.2-.8h.1l.2.2s-.4-.5-.3-.5.3,1.1.1.3-.1-.7-.1-.7.1,1.2,0,.3v-1.4c0-.2.1-.4.1-.7s0,0-.1.3l.3-1.5V252l-.3.7c.2-.3.1-.3-.2.2l-1,.9-.9.4h-.3c-1.1.1.1,0,.3,0a13.5,13.5,0,0,0,3.5-.6,5,5,0,1,0-2.7-9.6Z"/><path class="cls-2" d="M442.2,381.9h-.6l-.6-.3,1.4,1,2.1,1.4.7.4a2.8,2.8,0,0,0,2.2.4,7.9,7.9,0,0,0,2.9-1.8,12,12,0,0,0,2.2-2.3,2.1,2.1,0,0,0,.3-1.9,2.6,2.6,0,0,0-1.2-1.5,2.6,2.6,0,0,0-3.4.9c-.1.2.6-.6.3-.3h-.1l-.4.3a3,3,0,0,1-.8.8l-.5.4h.1l-.2.2-.9.5.6-.2h.9l.6.3a1.8,1.8,0,0,1-.7-.5l-1.5-1-1.5-1-.4-.3a2.6,2.6,0,0,0-1.5-.4,2.2,2.2,0,0,0-1.7.7,2.5,2.5,0,0,0-.8,1.8,2.3,2.3,0,0,0,.8,1.7,2.7,2.7,0,0,0,1.7.8Z"/><path class="cls-2" d="M61.1,449a17.3,17.3,0,0,0,2.5-2.1,17.1,17.1,0,0,0,2.1-2.6,14.6,14.6,0,0,0,2.3-5,3.1,3.1,0,0,0,.1-1.9,3.3,3.3,0,0,0-.6-1.9,2.9,2.9,0,0,0-1.3-1.4,3.9,3.9,0,0,0-1.7-.9,5.1,5.1,0,0,0-3.8.5,5.3,5.3,0,0,0-2.3,3,6.9,6.9,0,0,1-.5,1.3l.5-1.2a12.2,12.2,0,0,1-1.7,2.9l.8-1a13.1,13.1,0,0,1-2.3,2.4l1-.8h-.1a4.4,4.4,0,0,0-1.4,1.3,3.2,3.2,0,0,0-.9,1.7,4.6,4.6,0,0,0-.1,2,3.3,3.3,0,0,0,.6,1.9,5.3,5.3,0,0,0,3,2.3l1.3.2a5.2,5.2,0,0,0,2.5-.7Z"/><path class="cls-2" d="M53.1,446.3a23.7,23.7,0,0,0,1.9,7.4,10.6,10.6,0,0,0,5.9,5.3c3.7,1.4,7.6.2,11.4.4h.6c.6,0-1-.3-.4,0l1,.3c-.5.1-.9-.5-.4-.2s.6.3.5.4-.8-.7-.2-.2a8.1,8.1,0,0,0,1,.9,8.9,8.9,0,0,0,8.2,1.3,26.7,26.7,0,0,0,2.6-.9h.5c.9-.3-.4.1-.4,0H86c.1.5-1.9-.8-.8-.1l.5.3c.6.3-.7-.5-.1-.1l1.9,1.5a15,15,0,0,0,4,2c2.6.9,6.5,1.4,8.9-.2s2.5-5.8,2.7-9.3a2.8,2.8,0,0,0,.1-.9c0,.2-.1,1,0,0s.3-1.2.4-1.8l.4-1.3c.1-.7-.4.7-.1.1s.4-.6,0-.1,0-.1-.2.1.7-.7-.1,0a2.6,2.6,0,0,1,1.5-.4c-.9.1.5,0,.8,0h2.2c4.9.2,10.3,0,13.9-3.9a10,10,0,0,0,2.7-7.7,7.6,7.6,0,0,1-.1-1.4c-.1,0-.2.9,0,.2l-.5,1c.4-.6-.1,0-.3.1l.6-.4,1.9-1.6c2.1-2.3,2.8-5.6,3.2-8.6s.4-3.2.5-4.7-.2.8,0,.2.2-.5-.1,0,.9-.5-.8.8c.6-.5-.4,0-.6.1s-.1.1.2,0-.9-.3-.1,0l1.6.6a7.6,7.6,0,0,0,6.2-1.2,7.9,7.9,0,0,0,2.8-4.5,12.4,12.4,0,0,0,.3-2.7v-.9c0-.3.2-1.5,0-.5a5,5,0,0,0-3.5-6.1,5,5,0,0,0-6.1,3.5,13.5,13.5,0,0,0-.4,2.9V417c0,.6,0,.6.1-.1s-.2.5-.2.7.5-1,.6-1.1a4.3,4.3,0,0,1,2.1-.9c1.1,0,.3,0-.2-.2-3.1-1-6.8-.7-9.3,1.7s-2.5,5.7-2.8,8.8c.1-.9.1-.2,0,0s-.1.6-.1.9-.3,1.4-.4,2a6,6,0,0,1-.6,1.9c.1-.1.7-.9.1-.2s.3-.5-.1-.1,1-.7.1,0l-1.3,1a8,8,0,0,0-1.5,1.7,8.6,8.6,0,0,0-1.4,5c0,.6.1,1.2.1,1.8v.2h0v-.3c-.1.5-.1.4.2-.4s-.2.6-.3.6.9-.9.2-.3-.4.5-.4.5.6-.5.3-.3a.5.5,0,0,1-.4.2l-.6.4c-.8.4.2-.2.3-.1s-1,.3-1.3.3-1.1,0-.3.1h-2.8c-2.9-.2-6-.4-8.8.6s-6,4.4-6.9,8.3a21.7,21.7,0,0,0-.8,5.1,16.9,16.9,0,0,0-.1,2.3v1.5c.1.9.2.5.5-1.2l1.7-1.7c.1-.1,2.2-.3,1.4-.4h-.6c-.5,0-1.2-.2-.3,0l-1.3-.3s-.7-.2-.2,0-.2-.2-.3-.2l-1.1-.7c-.5-.2.1.2.2.2s-.3-.2-.4-.4a17.3,17.3,0,0,0-2.8-1.9,9.2,9.2,0,0,0-7.1-.7l-1.9.6-1,.4h-.4c-.8.3.2-.1.3,0H80l.4.2.3.2c.2-.3-2-1.7-2.4-1.9a11.4,11.4,0,0,0-5.7-1.6c-2.7-.2-5.5.3-8.2.3-.5,0,.6,0,.6.1l-.6-.2H64c-.5-.1.7.5.4.1l-.4-.2c-.7-.3.2.1.2.2l-.4-.4c-.4-.4.4.7.2.2l-.3-.4c-.3-.7.2.1.1.2s-.3-1.1-.3-1.2l-.3-1.3a1.1,1.1,0,0,0-.1-.5c-.1-.7.2,1.3,0,.1s-2-5.2-5-5-5.3,2.2-5,5Z"/><path class="cls-2" d="M95.3,504.5a51.3,51.3,0,0,0-1.3,6.6,19.6,19.6,0,0,0,0,6.4,6.8,6.8,0,0,0,6.6,5c2.5-.2,4.3-1.5,6.3-2.9l2.2-1.7,1-.6c.3-.4-.1,0-.3,0h-.2a12.7,12.7,0,0,1,2.8-.2h2.1c-.5,0-.5-.1,0,0l1.3.4c-.8-.2,0,0,.3.2l2.9,1.4a18.4,18.4,0,0,0,6.5,1.3l6.8.2c2.5,0,5.2-.5,6.9-2.6s2.1-5.1,0-7-5.3-2.2-7.1,0c-.3.4-.2.3.4-.2s.8-.3.3-.2c1.4-.2.3,0,0,0h-8.5a5,5,0,0,1-1.3-.3c-.5-.2-.5-.2,0,.1l-.5-.3-2.5-1.3a19,19,0,0,0-7.8-1.5c-2.5.1-5,.2-7.1,1.5s-3.3,2.4-5,3.6l-.6.4c-.5.3-.5.3.2,0l2.5.3c1.3,2.3,1.8,2.9,1.4,1.7.3,1.4.1.2.2-.2a8.6,8.6,0,0,1,.1-1.6c0-.5.1-1,.1-1.4s.2-.9.2-1,.5-2.2.8-3.3a5,5,0,0,0-3.5-6.1,5.2,5.2,0,0,0-6.2,3.5Z"/><path class="cls-3" d="M501.2,145.7H498a4.1,4.1,0,0,0-3.7,2,13.8,13.8,0,0,1-4.5,4.5,4.8,4.8,0,0,1-3.3,1,15.9,15.9,0,0,0-5.3.5c-2.6.9-2.8,1.7-3.1,4s0,1.6-.1,2.4-.4,1.7-1.8,1.7l-1.6-.5-3.4-1.7c-.7-.4-1.1-.4-1.5.4s-.7,1.3.2,1.8l2.4,1.8a3.1,3.1,0,0,0,1.6.6c1.5-.1,2.9.4,4.3.3s1,.4,1.4.9a45.4,45.4,0,0,0,3.9,4.8c1.6,1.6,2.3,1.6,3.9.1a2.8,2.8,0,0,1,1.5-.8,17.6,17.6,0,0,1,4.6-.6,8.7,8.7,0,0,0,5-1.3c1.8-1.1,3.2-.2,4.8.4s.4.8.2,1.2-.9,2.1-1.3,3.1a.8.8,0,0,1-.2.5c-1.7.9-3.1,2.2-5,2.8s-2.3-.3-3.4-.5a8.4,8.4,0,0,0-5.6,1.3,1.5,1.5,0,0,0-.7,1.5v3.9a11.6,11.6,0,0,1-.3,3.2,3.4,3.4,0,0,0,.3,2.4c2.2,3.6,4.7,7,8.6,9l1,.7c1.6,1.9,3.8,3,5.8,4.4a5.4,5.4,0,0,0,2.9,1.2c1.3.1,2.1,1.2,3.1,2a28,28,0,0,0,3.3,2.4,5.6,5.6,0,0,0,3.1.9,15.7,15.7,0,0,0,6.1-1.1c2-.9,4.2-1.4,6-2.7a5.3,5.3,0,0,0,2.8-3.4c.2-1,1.1-1.2,1.8-1.3,2.7-.5,4.7-2.1,6.6-4a4.4,4.4,0,0,0,.8-1.1c.8-1.2.8-1.2,2.1-.7a14.7,14.7,0,0,1,5.9,3.8c1.4,1.6,3.5,2,5.4,2.6a11,11,0,0,0,2.6.6,5.6,5.6,0,0,1,3.3,1.9c2.3,2.4,4.6,4.9,6.7,7.5s1.2,1.7-.4,2.8a8.7,8.7,0,0,0-2.1,1.7,3.3,3.3,0,0,0-.9,3.3,18,18,0,0,1,.3,8,25.4,25.4,0,0,0-.1,3.9,1.9,1.9,0,0,1-1.4,2.2,23.3,23.3,0,0,1-7.4,1.6c-3.7,0-4.7,2-4.3,4.8s-.5,6.3-1.4,9.3a19.8,19.8,0,0,0-.8,3.3,6.5,6.5,0,0,1-.6,2.4,8,8,0,0,1-4.4,4.6,19.5,19.5,0,0,0-5.4,4,25.3,25.3,0,0,1-6,4.3,4.7,4.7,0,0,0-2.4,3.6,10.3,10.3,0,0,0,.1,3.5,4.5,4.5,0,0,1-1.5,4.8l-1.9,2.3a5.9,5.9,0,0,0-1.4,4,18.2,18.2,0,0,1-.1,3.3,8.7,8.7,0,0,1-1.6,4.5,16,16,0,0,0-2.5,6.9v.4c-.5,2.7-1.3,5.2-4.1,6.4a3,3,0,0,0-1.3,2.2c-.8,3.6-.9,3.6-4.2,5l-2.9,1.1a4,4,0,0,0-2.8,3.3,8.2,8.2,0,0,1-1,3c-.8,1.4-1.1,1.5-2.5.9a1.7,1.7,0,0,0-1-.3c-2.9.6-5.8,1.3-7.9,3.7a9.3,9.3,0,0,1-4.6,2.9,6.4,6.4,0,0,0-4.2,3.8,5.2,5.2,0,0,1-3.6,3.3,5.3,5.3,0,0,0-3.1,2.2,1,1,0,0,1-1.4.2c-3.1-1.7-6-3.7-6.6-7.6a3.6,3.6,0,0,0-3.2-3.1,4.2,4.2,0,0,1-3.2-2.7,36.6,36.6,0,0,1-2.5-6.2,6.7,6.7,0,0,0-5-5,18.7,18.7,0,0,0-7-1.1c-3.6.2-7.1-.7-10.6-1.6l-1.8-.2a6.1,6.1,0,0,1-3.2-.8,5.9,5.9,0,0,0-2.9-.7,45,45,0,0,1-8.2-.3,15.6,15.6,0,0,1-3.7-1l-6.4-1.5c-.9-.3-1.8-.6-2-1.7a4.6,4.6,0,0,0-1.4-2.2l-.9-.9c-1.6-1.8-1.8-2.2-.6-4.2a6.2,6.2,0,0,0,.5-4.6,34.5,34.5,0,0,1-.1-8.5c.2-3.1,1-6.2,1-9.5a7.6,7.6,0,0,0-5.5-7.2,3.2,3.2,0,0,1-1.9-1.5,39.3,39.3,0,0,0-5.3-5.5,4.5,4.5,0,0,0-5.3-.7,12.3,12.3,0,0,1-9.6.2,9.4,9.4,0,0,0-8.3,1,25.3,25.3,0,0,1-5.2,2.6,4.9,4.9,0,0,0-2.2,1.8,6.4,6.4,0,0,1-4.2,3.3c-.6.1-.9.6-1.4,1a8,8,0,0,0-2.4,7.3v.5c0,2.1.3,2.2-2.1,3a7.3,7.3,0,0,0-3,1.9c-.6.6-1.1.5-1.7-.1s-4.1-3.7-5.5-6.2-.8-2.7.7-4.1a4.9,4.9,0,0,0-.4-6.9c-1.2-1-2.7-1.1-4.1-1.4a54.3,54.3,0,0,0-6.8-1.3l-2.8-.2a16.3,16.3,0,0,1-8-2.2c-2.7-1.4-3.8-3.9-5.2-6.2a2.5,2.5,0,0,1-.2-1.9c.2-1.7.4-3.4.7-5.1a4.5,4.5,0,0,1,4.1-3.5,32.7,32.7,0,0,0,4.4-.4,4,4,0,0,0,2.6-1.4l2.5-2.5a19.7,19.7,0,0,1,4.5-3.7,4.7,4.7,0,0,0,2.5-2.7,1.8,1.8,0,0,1,1-.9c.9-.4,1.8-.6,2.7-.9s4.2-1.5,4.5-4.1a1.7,1.7,0,0,1,.9-1.1l2.1-1.2a8,8,0,0,0,3.7-3.3,2.9,2.9,0,0,1,3-1.7h5c.7,0,1.4-.1,1.7-.8a7.5,7.5,0,0,1,2.5-2.2,5.2,5.2,0,0,0,1.8-2.1,5.9,5.9,0,0,1,1-1.7,1.9,1.9,0,0,1,1.9-1.1,3.5,3.5,0,0,0,1.7-.4,2.1,2.1,0,0,0,1.3-1.8c0-2.5,1.3-4.1,3.2-5.4l5.9-4a6,6,0,0,0,2.1-2.1,26.8,26.8,0,0,1,4.1-5.3,2.5,2.5,0,0,1,2.2-.9h1.3c1.6-.2,2.1-.3,2.3-2.2s.3-3.1,3.2-4.1a17.6,17.6,0,0,0,5.6-3.3,4,4,0,0,1,2.9-1.4,3.9,3.9,0,0,0,3.1-1.5c1.1-1.2,2.6-2,3.5-3.5a13.8,13.8,0,0,0,1.7-2.9c.6-1.7,1.9-2.3,3.7-1.9s2.1,1,3.2,1.4a11.8,11.8,0,0,0,9.4.3,5.5,5.5,0,0,0,3.9-4.3,8.3,8.3,0,0,0,.7-2.7,2.2,2.2,0,0,1,1.4-1.9,25.5,25.5,0,0,1,9.2-3.7,3.3,3.3,0,0,0,2.6-2.1c.2-.6.4-1.5,1.2-1.6a5.5,5.5,0,0,1,3.1.1l2.6,1.3c2.5,1.1,3.4.9,5.3-1.1a5.2,5.2,0,0,1,2.2-1.4c1-.2,1.2-.8,1.2-1.7v-1c.1-1.1.5-1.5,1.5-1.6h4.7c.9,0,1.5.7,2.1,1.1l2.2,1.8a2.8,2.8,0,0,0,4.5-.9l.6-.9a1.7,1.7,0,0,1,1.8-1.1h7a3.8,3.8,0,0,0,4-2.2,1.5,1.5,0,0,1,.6-.9l3.6-2.6a4,4,0,0,1,3.8-.7c1.6.5,3.3.9,4.9-.2s1.3-.8,1.8-.3,0,1.2-.1,1.8a1.2,1.2,0,0,1-1.5.9Z"/><path class="cls-3" d="M643.6,124.5l.7-.4a3,3,0,0,0,2.4-3.1,3.2,3.2,0,0,1,1.6-3.1,7,7,0,0,0,2-2.2,2.9,2.9,0,0,1,2.7-1.4,18.1,18.1,0,0,1,5.1.8c2.9.7,5.9.9,8.8-.7a.1.1,0,0,0,.1-.1c2.3-1.3,4.8-1.3,7.4-.9s4.7,1.9,7.1,2.7l1.8.7c1.5.7,2.9,0,4.2-.5a2,2,0,0,0,1-2.4,6.4,6.4,0,0,1-.5-2.3c0-.5-.1-1.1.5-1.4s.9.2,1.3.5l.8.7a4.5,4.5,0,0,0,4.3,1.5c2.6-.5,5.2-.5,7.7-.9h2.2a2.2,2.2,0,0,0,2.6-1.4v-.3a1.1,1.1,0,0,1,1.3-.4c.5,0,.5.5.6.9.2,2.1.2,2.1,2.2,2.5h.9a3.7,3.7,0,0,1,3.6,3.9v1.1c0,.7.2,1.1,1.1.9a32.6,32.6,0,0,1,3.3-.5c.7-.2,1-.5,1-1.2s0-2.2,0-3.4a8,8,0,0,1,.8-3.5,2,2,0,0,1,.9,2c0,1,.1,2.1,0,3.2a3,3,0,0,0,1.5,2.8c2.1,1.2,3.7,2.9,5.7,4.2a3.9,3.9,0,0,1,1.3,3.6c-.2,2.3,1.3,3.5,2.9,4.7a.8.8,0,0,0,1.4-.4c.4-.7.5-1.7,1.4-2s1.5.6,2.3.7l4.5,1c1.6.5,1.7.6,1.2,2.3s-.6,3-1.7,4.2,0,1.1.4,1.6,2.1,2.9,3.1,4.3a4.2,4.2,0,0,1,.8,1.2,13.2,13.2,0,0,0,2.9,5l.4.6c.8,2.2,1.7,4.4,2.4,6.6a1.6,1.6,0,0,1-1.3,2c-3.3.9-3.5,1-1,3.7l2.5,3a6.6,6.6,0,0,1,1.4,3.8c0,2-.1,4.1,0,6.2a5.4,5.4,0,0,1-.5,2.2c-.4,1.1-.9,2.1-1.3,3.1a3.4,3.4,0,0,1-5.3,1.6c-2.5-1.5-4.9-3.1-7.3-4.7a9.7,9.7,0,0,0-5.2-1.9,12.9,12.9,0,0,1-6.1-2.7,37.8,37.8,0,0,1-5.5-5.1,3.3,3.3,0,0,0-2.5-1.1c-1.2,0-2.3-.7-3.6-.8a5,5,0,0,0-2.1,0,4.2,4.2,0,0,1-4.1-1,18.6,18.6,0,0,1-4.8-5.6,9.1,9.1,0,0,0-1.1-1.6c-1.4-1.5-3.2-2.6-4.6-4.1a.5.5,0,0,0-.5-.3,34.5,34.5,0,0,0-9.5-3.3,16.8,16.8,0,0,1-5.4-1.6,11.1,11.1,0,0,0-7.6-.7l-2.3.2a8.8,8.8,0,0,0-4.2.6,3.7,3.7,0,0,1-1.5.1H655.7a8.1,8.1,0,0,1-4.6-1.7c-1.5-1.1-1.4-2.4.2-3.4a1.5,1.5,0,0,1,.7-.3c.9-.3,1.1-1,1.1-1.9a26.4,26.4,0,0,0-1.2-8.8,8.2,8.2,0,0,1-.6-2.7,2.3,2.3,0,0,0-1.5-2.2,27.6,27.6,0,0,0-2.7-.8A4.9,4.9,0,0,1,643.6,124.5Z"/><path class="cls-3" d="M143.5,395.3c-2.1,1.1-2.9,3.4-2.2,5.9s.8,2.9,1.3,4.3a5,5,0,0,1-.4,4.3c-.8,1.4-2,2.7-2.3,4.3a34.7,34.7,0,0,1-1.7,4.5,11.7,11.7,0,0,1-.5,1.1c-.8,1.2-1.4,1.4-2.7.8l-3.2-1.5a3.1,3.1,0,0,0-4.2,2.4,50.3,50.3,0,0,0-.8,7.7,6.8,6.8,0,0,1-.2,2c-.2.4-.3.7-.8.8-3.5.6-5.6,2.9-7.1,5.9a12.2,12.2,0,0,1-2.7,3.7,5.7,5.7,0,0,1-5.8,1.6,20.2,20.2,0,0,0-5.5-.6c-2.6.1-3.9,1.3-3.9,4a7.4,7.4,0,0,1-.5,2.9,16.8,16.8,0,0,0-.8,5.4,31.3,31.3,0,0,1-.4,4.4.7.7,0,0,1-.4.7c-.4.1-.7,0-.8-.3a23.9,23.9,0,0,1-1.3-2.1l-1.5-2.6-1.3-2.5c-.7.3-.4.7-.4,1.1s0,2.1,0,3.2.2,1.5-.8,1.8a2.5,2.5,0,0,1-2.7-.8l-3-5c-.6-1-1-1.1-1.5-.1-1.1,2.5-3.3,2.7-5.6,2.8H78.2a1.3,1.3,0,0,1-1.5-.9,3.7,3.7,0,0,0-3.1-2.8,11.3,11.3,0,0,0-4.1-.2,1.8,1.8,0,0,0-1.7,1.7c0,1.1-.6,1.3-1.5,1.4s-.7-.1-1,.1c-2.1,1-3.3-.3-4.4-1.8s-2-2.6-2.1-6.1a12.3,12.3,0,0,1,1.1-5.3,19.8,19.8,0,0,0,1.4-6.4,9.1,9.1,0,0,1,2.5-5.1,3.1,3.1,0,0,1,2.4-1l5.2-.6a17.4,17.4,0,0,0,4.5-1.1l5.1-1.6a1.2,1.2,0,0,0,.9-.7l-4.1-6.1a3.2,3.2,0,0,1-.5-3.3c.9-2.1,1.5-4.3,2.2-6.5a1.9,1.9,0,0,1,1.8-1.5c1.2-.1,2.3-.5,3.5-.7a1.4,1.4,0,0,0,1.4-1.4c.1-.9.1-1.9.9-2.3s2.3-1.7,3.8-1.6,4.7-.1,7,0a1.9,1.9,0,0,0,2.1-1.2,5.5,5.5,0,0,1,3.4-3.1,33.7,33.7,0,0,0,6.1-3.6,12.9,12.9,0,0,1,5.5-2.4,8.1,8.1,0,0,0,3.3-1.4,1.4,1.4,0,0,1,1.9.1c.1.2.4.3.6.4a1.1,1.1,0,0,0,1.9-.1c.2-.3.5-.4.6-.7,1.3-1.9,3.4-2.2,5.4-2.5s1,.1,1,.7,1.4,2.5,2.6,3.5,5.7,2.8,9,2.5C142.8,393.7,142.8,393.8,143.5,395.3Z"/><path class="cls-4" d="M97.3,511.8A35.9,35.9,0,0,1,98,504c.1-.8.5-1.5.6-2.2s1.7-2.2,3.3-2.3a10,10,0,0,1,5.6,1.2c1.6.7,1.6.7,2.5-.7s1.2-1.7,2.5-.1,4.3,5.3,6.6,7.9a13.4,13.4,0,0,0,8.4,4.8l1.1.2a2.7,2.7,0,0,0,2.8-.6l3.7-2.7a1.9,1.9,0,0,1,.8-.3c1,.2,2.6,2.2,2.7,3.2v1.1c.1,1.8.1,1.7-1.4,2.3-3.4,1.5-6.4.4-9.5-.8a31,31,0,0,1-6.1-3.5,14.9,14.9,0,0,0-4.5-1.9l-5.6-.8c-2-.1-3.7.4-4.7,2.5s-2.4,4.1-4.8,4.9a3.7,3.7,0,0,0-2.1,1.8c-.7.9-.9.8-1.6-.1a5,5,0,0,1-1-3.1Z"/><path class="cls-4" d="M450.9,376.2c-.5,1.5-1,2.9-1.4,4.3s-.5.9-1.1.9c-2.5.1-4.6-.5-6.2-2.9a5.1,5.1,0,0,0,3.3-1.8,1.5,1.5,0,0,1,1.4-.7A13.9,13.9,0,0,1,450.9,376.2Z"/><polyline class="cls-5" points="86.6 59.7 101.8 50.3 109.1 57.4 128.6 55 136.5 61.7"/><polyline class="cls-6" points="799.7 484.7 784.9 477.5 773.8 481.1 756.6 479.9 729.7 484.2"/><polyline class="cls-6" points="202.5 295.3 221.8 291.7 240.1 303.6"/><polyline class="cls-6" points="748.2 49 761.2 44.4 777.9 49 793.1 39.8 801.4 49"/><polyline class="cls-7" points="90.5 287.4 68.9 273 35.9 282.2"/><polyline class="cls-7" points="567.9 530.8 586 527.4 594.7 530.8 615.4 530.8 633.2 536.3"/><polyline class="cls-7" points="504.2 74.8 513.5 69.1 520.2 74.8 542.4 69.1"/><polyline class="cls-7" points="712.2 247 736.1 240.2 747.1 251.2"/><ellipse class="cls-8" cx="462" cy="234.5" rx="15.9" ry="7"/><line class="cls-9" x1="499.6" y1="224.3" x2="491.1" y2="226.9"/><line class="cls-9" x1="482.6" y1="219.2" x2="494.9" y2="207.2"/><path class="cls-10" d="M462,139.8c-16.6,0-30.1,13.2-30.1,29.4,0,5.3,1.9,10.2,4.1,14.7l26,50,26.1-50.2c2.1-4.3,4-9.2,4-14.5C492.1,153,478.6,139.8,462,139.8Z"/><line class="cls-9" x1="425.8" y1="224.8" x2="434.3" y2="227.4"/><line class="cls-9" x1="442.8" y1="219.7" x2="430" y2="207.2"/><polyline class="cls-7" points="340 418.8 342.7 418.8 350.7 428.2 366.3 423.5 372.9 428.2"/><polyline class="cls-6" points="229.2 484.5 252.8 481.1 268.7 489.7"/><path class="cls-11" d="M200.1,157.2s-13.4-31-33.2-9-19.4.6-47.4,25.2c-1.9,1.6-30.7-10.5-57.6,11.6-5,4.2,81.2-1.4,115.1-1.3,107.3,0,84.2,1.7,60-15.1S200.1,157.2,200.1,157.2Z"/><path class="cls-12" d="M754,379.3s-10.1-29.3-29.8-8.2c-30.5,32.8-27.1,13.6-44.2,19.3-9.2,3.1-18,14.2-27.2,16.7-11.3,3,3.6.8,78.6,1.1,120.2.4,60.1-.9,53.1-16.2C771.8,364.5,754,379.3,754,379.3Z"/><polygon class="cls-13" points="470.8 169.2 480.7 172.7 470.7 176.2 475.2 185.7 465.7 181.2 462.2 191.1 458.7 181.1 449.1 185.6 453.7 176.1 443.8 172.6 453.7 169.1 449.3 159.6 458.7 164.1 462.3 154.2 465.8 164.2 475.3 159.7 470.8 169.2"/></g></g></svg>