<svg xmlns="http://www.w3.org/2000/svg" xmlns:xlink="http://www.w3.org/1999/xlink" viewBox="0 0 1194.2 912.8"><defs><style>.cls-1,.cls-10,.cls-12,.cls-15,.cls-18,.cls-21,.cls-24,.cls-25,.cls-28,.cls-6{fill:none;}.cls-2{isolation:isolate;}.cls-3{clip-path:url(#clip-path);}.cls-22,.cls-4{fill:#65a9e0;}.cls-4{opacity:0.9;}.cls-19,.cls-5{fill:#93ba53;}.cls-10,.cls-11,.cls-12,.cls-13,.cls-14,.cls-15,.cls-16,.cls-17,.cls-18,.cls-19,.cls-20,.cls-21,.cls-5,.cls-6,.cls-7,.cls-8,.cls-9{stroke:#222221;}.cls-5,.cls-6{stroke-miterlimit:10;}.cls-11,.cls-5,.cls-6,.cls-7,.cls-8{stroke-width:8px;}.cls-7,.cls-8,.cls-9{fill:#f6f6f6;}.cls-10,.cls-11,.cls-12,.cls-13,.cls-14,.cls-15,.cls-16,.cls-17,.cls-18,.cls-19,.cls-20,.cls-21,.cls-22,.cls-23,.cls-24,.cls-25,.cls-26,.cls-27,.cls-28,.cls-29,.cls-30,.cls-7,.cls-8,.cls-9{stroke-linecap:round;stroke-linejoin:round;}.cls-7{opacity:0.69;}.cls-10,.cls-11,.cls-12,.cls-8,.cls-9{opacity:0.7;}.cls-10,.cls-9{stroke-width:6px;}.cls-10,.cls-12{mix-blend-mode:multiply;}.cls-11{fill:#fffef9;}.cls-12{stroke-width:7.7px;}.cls-13{fill:#f4ea5a;}.cls-13,.cls-16,.cls-19,.cls-22,.cls-26,.cls-30{stroke-width:7px;}.cls-14,.cls-17{fill:#f6f5f6;}.cls-14,.cls-15{stroke-width:3.8px;}.cls-16{fill:#e8b242;}.cls-17,.cls-18{stroke-width:4.5px;}.cls-20,.cls-23,.cls-27,.cls-29{fill:#fff;}.cls-20,.cls-21,.cls-23,.cls-24{stroke-width:3.7px;}.cls-22,.cls-23,.cls-24,.cls-25,.cls-26,.cls-27,.cls-28,.cls-29,.cls-30{stroke:#232422;}.cls-25,.cls-29{stroke-width:3px;}.cls-26{fill:#d47aa7;}.cls-27,.cls-28{stroke-width:3.14px;}.cls-30{fill:#856aa8;}</style><clipPath id="clip-path"><rect class="cls-1" x="0.4" y="2.3" width="1194.2" height="912.83"/></clipPath></defs><g class="cls-2"><g id="Capa_5" data-name="Capa 5"><g class="cls-3"><rect class="cls-4" x="0.4" y="4.2" width="1212.5" height="910.99"/><path class="cls-5" d="M130.5-261.4h0S120.6-91,55.6-67.3-78.6-109.2-78.6-109.2h0l-80.6,23.7h0l-31.1,44.8h0l-84.8-7h0l-19.8,58.6H-432V43h0l-66.4,28h0v62.9h0s15.3,65.2,42.4,53.1c24.6-11,39.9-9.6,48.5-6.3a18,18,0,0,1,11,12.7l11.1,44.9a15.7,15.7,0,0,1-1.6,11.8h0a16.8,16.8,0,0,0,1.8,19.1l17.5,20.7a19.3,19.3,0,0,0,17.8,11.7h39.5l82.7,23.4a23.5,23.5,0,0,0,14.2,4.7h118a23.5,23.5,0,0,0,22.3-15.8l10.7-31.1a25.7,25.7,0,0,1,26.4-17.2l30.9,2.5,2.9.4c21.3,4.1,270.7,54.6,291,137.5,2.4,9.9-7.1,27.1-25.6,52.4-6.3,8.5,22.8,32.4,31.3,33.7h0c2.9.3,28-6.9,31.3-21l1.3-5.8h0S510.7,651.2,495.2,771.4c-7.3,56.7-59,140.1-82.1,158.1a22.2,22.2,0,0,0-8.2,22.2l9.7,45.3a20.1,20.1,0,0,1-8.6,20.9L314.2,1078a25.7,25.7,0,0,0-8.6,9.6l-13.2,26.1a22.3,22.3,0,0,1-10.9,10.3l-14.4,6.4a24.7,24.7,0,0,0-14.9,24.8l20.8,242a26.6,26.6,0,0,1-.1,6.3L260,1507.7a25.6,25.6,0,0,0,2.4,13.9l8.5,17.5a43.9,43.9,0,0,0,25.5,22.3l71,23.7a38.7,38.7,0,0,0,23.8.3l12.6-3.9a22.5,22.5,0,0,1,25.6,9.5l29,46h0l715.9-20,55.1,1.9-11-1799.6,1.8-77Z"/><path class="cls-6" d="M59.4-58.4,160.6,72.7,110,164.2l83-16.4a61.1,61.1,0,0,1,25.9.4l222.7,50.5,284.4,19,132.7-6.9,143.1,110,216.6-9.4"/><path class="cls-6" d="M-162.3-49.8l39.7,113.9L110,164.2,478.9,402.4,629,387.2a65.7,65.7,0,0,1,59.7,26.7L801.1,569.8l120.4,12.1,302.1-167.1"/><path class="cls-6" d="M590,800.8l16-37.3c15.4-35.6,24.1-28.5,40.7-25.6L703.6,748a48.7,48.7,0,0,1,24,11.9l29.4,26c15.7,13.8,25,36.2,25,60v83.6l-188.5,3.7-7.7-81.4A83.1,83.1,0,0,1,590,800.8Z"/><polyline class="cls-6" points="782 845.9 1062.6 804.7 1072.2 498.5"/><polyline class="cls-6" points="137.4 -198.1 640 -58.4 572.8 207.5 516.8 398.6 478.9 402.4 542.3 576.8 619.1 733.9 716.8 747.7 801.1 569.8"/><polyline class="cls-6" points="640 -58.4 737.7 38.9 858.7 210.8"/><polyline class="cls-6" points="266.6 364.5 323.5 242.8 400.3 6.7 400.3 -125.1 421.3 -262.6"/><line class="cls-6" x1="1185.3" y1="925.5" x2="1062.6" y2="804.7"/></g><polygon class="cls-7" points="534.4 472.6 516.8 422.3 649.7 411.8 685.4 461.7 534.4 472.6"/><polygon class="cls-8" points="633 711.8 704 723.4 762.1 598.8 702.6 599.7 633 711.8"/><polygon class="cls-7" points="541.2 493.6 592.5 492.1 650.1 632.1 620.4 679.4 567.9 571.6 541.2 493.6"/><polygon class="cls-9" points="350.3 256.9 362.1 241.7 375.1 256.9 368.6 256.9 380.4 273.3 372.8 273.3 384.4 288.2 357 288.2 341.6 288.2 351.7 273.8 343.2 273.8 355.6 257.8 350.3 256.9"/><polygon class="cls-9" points="396.7 288.6 408.6 273.4 421.5 288.6 415 288.6 426.9 304.9 419.3 304.9 430.9 319.9 403.5 319.9 388 319.9 398.1 305.5 389.7 305.5 402.1 289.5 396.7 288.6"/><polygon class="cls-9" points="460.1 325.8 471.9 310.6 484.8 325.8 478.4 325.8 490.2 342.1 482.6 342.1 494.2 357 466.8 357 451.3 357 461.5 342.7 453 342.7 465.4 326.6 460.1 325.8"/><polygon class="cls-9" points="445.1 265.4 456.9 250.2 469.9 265.4 463.4 265.4 475.2 281.7 467.6 281.7 479.2 296.6 451.8 296.6 436.4 296.6 446.5 282.3 438 282.3 450.4 266.2 445.1 265.4"/><polygon class="cls-9" points="493.4 245.1 505.3 229.9 518.2 245.1 511.7 245.1 523.6 261.4 516 261.4 527.6 276.4 500.2 276.4 484.7 276.4 494.8 262 486.4 262 498.8 246 493.4 245.1"/><polygon class="cls-9" points="395.5 228.7 407.4 213.5 420.3 228.7 413.8 228.7 425.7 245 418.1 245 429.7 259.9 402.3 259.9 386.8 259.9 397 245.6 388.5 245.6 400.9 229.5 395.5 228.7"/><polygon class="cls-7" points="599 226.1 630.7 227.7 628.3 266.2 591.6 264.3 599 226.1"/><polygon class="cls-7" points="588.5 276.4 574.6 322.6 616.1 326.9 626.7 281.8 588.5 276.4"/><polygon class="cls-7" points="571.4 339.9 559.9 376.4 607.2 374.2 612.9 342.6 571.4 339.9"/><polygon class="cls-7" points="637 313.7 625.2 371.4 668.3 369.5 674.7 326.8 637 313.7"/><polygon class="cls-7" points="646.8 229.9 642.3 291.4 678.3 301.7 688.4 233.2 646.8 229.9"/><path class="cls-8" d="M300.4,362.6S445.5,477,443.1,483.3s57.6,160.8,57.6,160.8l-5.4,97.1s-5.3-27.5-6.2-30.9c-22.2-76.7-86-156-86-156l-72.8-87.5-12.7,17.4-25,8.8-27-24.9-3.6-9.2,16.8-27.2,10.6-23L283,390.1l-23.8-27.2Z"/><rect class="cls-8" x="688.5" y="767" width="25.1" height="25.09" transform="translate(54.8 -46) rotate(3.9)"/><rect class="cls-8" x="469.8" y="160.1" width="25.1" height="25.09" transform="translate(12.9 -32.5) rotate(3.9)"/><rect class="cls-8" x="647.2" y="761.4" width="25.1" height="25.09" transform="translate(179.6 -122.6) rotate(12.3)"/><rect class="cls-8" x="428.6" y="153.7" width="25.1" height="25.09" transform="translate(45.4 -90) rotate(12.3)"/><line class="cls-10" x1="251.3" y1="213.5" x2="251.3" y2="221"/><line class="cls-10" x1="269.9" y1="213.5" x2="265.8" y2="221"/><line class="cls-10" x1="973.6" y1="197.7" x2="980.5" y2="205.1"/><line class="cls-10" x1="1001.8" y1="194.8" x2="998.4" y2="201.4"/><line class="cls-10" x1="1018.3" y1="437" x2="1019.7" y2="448.2"/><line class="cls-10" x1="994.3" y1="451.4" x2="1000.1" y2="462.4"/><line class="cls-10" x1="797.2" y1="254.4" x2="803" y2="265.5"/><line class="cls-10" x1="818.4" y1="244.8" x2="818.8" y2="259.9"/><line class="cls-10" x1="890.6" y1="499.3" x2="898.9" y2="507.7"/><line class="cls-10" x1="1007.3" y1="779.5" x2="1004.6" y2="784.2"/><line class="cls-10" x1="987.4" y1="773.9" x2="988.1" y2="784.2"/><line class="cls-10" x1="541.2" y1="745.1" x2="547.1" y2="756.4"/><line class="cls-10" x1="564.3" y1="740" x2="559.9" y2="750.8"/><line class="cls-10" x1="480.8" y1="103.7" x2="484" y2="115.4"/><line class="cls-10" x1="650.1" y1="47.4" x2="650.1" y2="62.6"/><line class="cls-10" x1="677.1" y1="42.4" x2="672.2" y2="57.5"/><line class="cls-10" x1="297.2" y1="49.2" x2="300" y2="60.8"/><line class="cls-10" x1="275.5" y1="47" x2="274.3" y2="52.9"/><line class="cls-10" x1="464.6" y1="457.9" x2="469.4" y2="465.2"/><line class="cls-10" x1="710.4" y1="880.7" x2="711.3" y2="886.8"/><line class="cls-10" x1="726.7" y1="880" x2="727.3" y2="889.6"/><line class="cls-10" x1="868.2" y1="878.6" x2="868.6" y2="891.7"/><polygon class="cls-11" points="711.3 236.7 705.3 296.6 747.1 288.2 738.4 236.7 711.3 236.7"/><line class="cls-12" x1="73.5" y1="69.9" x2="73.5" y2="60.4"/><line class="cls-12" x1="49.6" y1="69.9" x2="54.9" y2="60.4"/><line class="cls-10" x1="59" y1="197.9" x2="63.8" y2="205.3"/></g><g id="Capa_6" data-name="Capa 6"><circle class="cls-13" cx="711.3" cy="529.5" r="57.7"/><path class="cls-14" d="M690.1,527.1s-5.7-36.4,28.1-35.1c11.1.5,31,8,26.3,35.9-2.7,16.4-16.9,17-18.2,25.1-3.2,20.2-30,20.3-34.3,5.4,0,0-14.7-1.3-14.7-15.7S690.1,527.1,690.1,527.1Z"/><path class="cls-15" d="M710.6,540.3s-1-7.4-10.7-7.6c-15.8-.4-17.7,18.6-1.1,18.6s12.1-12.5,10.7-17.2c-2.7-9-14.3-32,7.1-32S735,522.4,735,522.4l-12.6,6.4s9-23.5-17.1-20.2"/><path class="cls-15" d="M704.9,556.7s10.6-.7,11.1-9.7"/><circle class="cls-16" cx="644.9" cy="179" r="57.7"/><path class="cls-17" d="M623,180s-7.2,39.8,21,39.8S665.2,180,665.2,180"/><line class="cls-18" x1="644.2" y1="180" x2="644.2" y2="207.7"/><path class="cls-17" d="M643.8,167.6c-2.6-32.2,19.4-29.3,19.4-29.3s-8.9,15.7-18.6,14.6"/><path class="cls-17" d="M643.8,167.6s.1-11.6-17.6-11.6-17.6,23.6-17.6,23.6h70.7s0-23.8-17.7-23.3S643.8,167.6,643.8,167.6Z"/><circle class="cls-19" cx="401.5" cy="384.5" r="57.7"/><path class="cls-20" d="M400.6,341.3s-22.9,11.6-17.2,45.7c0,0-17.2-2.9-17.1,16.9.1,17.3,19.4,11.5,19.4,5.8,0,0,6.4,10.6,14.7,10.7s14.8-10.6,14.8-10.6c0,5.7,19.5,11.4,19.4-5.7-.1-20.2-17.1-17.1-17.1-17.1C423.3,352.8,400.6,341.3,400.6,341.3Z"/><path class="cls-21" d="M376.9,407.5s5.6-1.9,8.8,2.2"/><path class="cls-21" d="M423.9,407.5s-5.6-1.8-8.8,2.3"/><polyline class="cls-21" points="400.6 341.3 400.4 397.8 417.5 387"/><line class="cls-21" x1="383.3" y1="386.7" x2="400.4" y2="397.8"/><polyline class="cls-21" points="383.9 364.7 400.4 381.3 417.1 364.7"/><polyline class="cls-21" points="388.9 352.9 400.4 364.2 412.2 352.9"/><circle class="cls-22" cx="842.1" cy="376.4" r="57.7"/><path class="cls-23" d="M800.1,378.4s39.8,51.3,85.6.4C885.7,378.8,845.9,324.4,800.1,378.4Z"/><path class="cls-24" d="M800,363.4s40-45,85.8.1"/><path class="cls-24" d="M865.4,361.2l-7.9,5.2,13,14.6-21.2-4.3L842.6,395,836,376.7,814.4,381l13.3-14.6-6.7-5.9C836.5,352,848.4,352.1,865.4,361.2Z"/><line class="cls-24" x1="842.8" y1="413.9" x2="842.7" y2="401.8"/><line class="cls-24" x1="862.1" y1="408.4" x2="856.9" y2="399.1"/><line class="cls-24" x1="824.5" y1="408.2" x2="828.2" y2="398.9"/><path class="cls-25" d="M855.7,356.9l-6.1,4.4,5.5,9.5-9.5-3.8-3.1,10-3.2-10-9.3,3.9,5.3-9.6-6.4-4.3A37.5,37.5,0,0,1,855.7,356.9Z"/><polygon class="cls-8" points="882.4 609.4 835.9 598.8 809 629.9 767.7 719.2 778 756.4 806.5 773.9 880.7 748 900.1 671.9 882.4 609.4"/><circle class="cls-26" cx="875" cy="699.1" r="57.3"/><path class="cls-27" d="M842.1,689.5s-1.7,49.1,32.9,49.1c32.6,0,29.3-44.7,26.7-62.4a18.3,18.3,0,0,0-10.6-14,32,32,0,0,0-13.1-2.6,33.2,33.2,0,0,0-14.6,3,16.3,16.3,0,0,0-9,13.5l-.9,16S849.3,683.7,842.1,689.5Z"/><path class="cls-28" d="M853.6,691.3c0,.7,3,15.5,3,15.5s21.9-3.7,30,14.6"/><line class="cls-28" x1="864.6" y1="662.4" x2="864.6" y2="671.7"/><line class="cls-28" x1="878.5" y1="671.5" x2="878.5" y2="659.9"/><line class="cls-28" x1="892.3" y1="671.7" x2="892.2" y2="662.9"/><rect class="cls-29" x="862.1" y="671.8" width="4.9" height="25.88"/><rect class="cls-29" x="876.1" y="671.8" width="4.9" height="25.88"/><rect class="cls-29" x="889.9" y="671.8" width="4.9" height="25.88"/><circle class="cls-30" cx="932.3" cy="145.3" r="61.6"/><path class="cls-23" d="M933.5,98.7c-16.9,0-30.6,13.3-30.6,29.8,0,5.5,1.9,10.4,4.1,15l26.5,50.9L960,143.3c2.2-4.4,4.1-9.4,4.1-14.8C964.1,112,950.4,98.7,933.5,98.7Z"/><polygon class="cls-23" points="942.9 127.8 953.7 131.7 942.9 135.5 947.7 145.9 937.4 140.9 933.5 151.7 929.7 140.9 919.3 145.7 924.3 135.4 913.5 131.5 924.3 127.7 919.5 117.3 929.8 122.3 933.7 111.5 937.5 122.3 947.9 117.5 942.9 127.8"/></g></g></svg>