<svg xmlns="http://www.w3.org/2000/svg" viewBox="0 0 372.8 421"><defs><style>.cls-1{fill:none;stroke:#000;stroke-linecap:round;stroke-linejoin:round;stroke-width:12px;}</style></defs><g id="Capa_2" data-name="Capa 2"><g id="oido"><path class="cls-1" d="M73.9,192.7S43.7-1,223.4,6.2c58.7,2.4,164.5,42.2,139.7,190.9-14.5,86.7-89.9,90.1-96.9,133.3C249,437.4,106.9,438.2,83.8,358.9c0,0-77.8-6.8-77.8-83.2C6,201.9,73.9,192.7,73.9,192.7Z"/><path class="cls-1" d="M183,263s-5.5-39.5-57.1-40.7c-83.7-2-94,98.7-5.9,98.7,80.1,0,64.2-66.4,56.7-91.3-14.3-47.9-75.8-170.2,38-169.8,107.6.3,97.5,107.9,97.5,107.9l-66.9,33.7s47.8-124.9-90.6-107"/><path class="cls-1" d="M152.4,349.9c.1,0,56.2-3.8,58.8-51.5"/></g></g></svg>