<svg xmlns="http://www.w3.org/2000/svg" viewBox="0 0 369 425.4"><defs><style>.cls-1{fill:none;stroke:#000;stroke-linecap:round;stroke-linejoin:round;stroke-width:12px;}</style></defs><g id="Capa_2" data-name="Capa 2"><g id="olfato"><path class="cls-1" d="M185.4,6S65.9,66.4,95.2,244.5c0,0-89.6-15-89.2,88.7.4,90.2,101.2,60.1,101.2,30.3,0,0,34,55.5,76.9,55.9s77.6-55.5,77.6-55.5c0,29.7,101.6,59.5,101.3-29.8-.5-105.4-89.3-89.6-89.3-89.6C303.9,66,185.4,6,185.4,6Z"/><path class="cls-1" d="M61.4,351.6s29.3-9.6,45.8,11.9"/><path class="cls-1" d="M307.1,352s-29.4-9.7-45.9,11.9"/><polyline class="cls-1" points="185.4 6 184.5 301 273.7 244.5"/><line class="cls-1" x1="95" y1="243" x2="184.5" y2="301"/><polyline class="cls-1" points="98.3 128.1 184.5 214.7 271.7 128.1"/><polyline class="cls-1" points="124 66.4 184.5 125.5 246.1 66.4"/></g></g></svg>