<svg xmlns="http://www.w3.org/2000/svg" viewBox="0 0 442.7 365.9"><defs><style>.cls-1{fill:none;stroke:#000;stroke-linecap:round;stroke-linejoin:round;stroke-width:12px;}</style></defs><g id="Capa_2" data-name="Capa 2"><g id="vista"><path class="cls-1" d="M6.4,181.6s199.7,257.6,429.9,2C436.3,183.6,236.4-89.1,6.4,181.6Z"/><path class="cls-1" d="M6,106.3s200.5-225.9,430.7.4"/><path class="cls-1" d="M334,95.5l-39.3,25.8,65,73.6L253.2,173.4l-33.3,91.9-33.3-91.9L78.1,194.9,145,121.3,111.4,91.8C189.3,49.3,248.8,49.6,334,95.5Z"/><line class="cls-1" x1="220.6" y1="359.9" x2="220.4" y2="299.2"/><line class="cls-1" x1="317.7" y1="332.3" x2="291.5" y2="285.4"/><line class="cls-1" x1="128.7" y1="331.4" x2="147.5" y2="284.8"/><path class="cls-1" d="M285.5,73.7,254.8,96.1l27.4,47.4-47.3-19L219,174.8l-16-50.3-46.4,19.4,26.6-47.8-32.1-22C199,55.6,245.7,59.4,285.5,73.7Z"/></g></g></svg>